<?xml version="1.0" encoding="UTF-8"?>
<svg width="3768" height="3768" version="1.1" viewBox="0 0 3768 3768" xmlns="http://www.w3.org/2000/svg">
 <g>
  <rect width="3768" height="3768" fill="#000"/>
  <path d="m2956.5 633.28c-1.8609 0.34448-3.794 1.652-6.8086 4.1074-2.9591 2.4102-6.3117 4.678-7.4493 5.0391-1.1376 0.36105-2.6123 1.3135-3.2792 2.1172-0.6671 0.8037-2.1931 1.4609-3.3907 1.4609-2.7562 0-4.5781 1.7951-4.5781 4.5117 0 1.8074-4.6961 6.4883-6.5098 6.4883-0.3254 0-1.2504-1.575-2.0547-3.5-2.2222-5.3184-7.5825-4.3788-9.7363 1.707-0.3324 0.93901-2.3371 2.8017-4.4551 4.1387-2.7017 1.7055-4.2465 3.6335-5.1796 6.4609-1.5287 4.632-3.2677 5.3942-8.879 3.8965-3.2946-0.87937-4.4316-0.77133-6.5507 0.61719-1.4103 0.92404-3.4961 1.6797-4.6348 1.6797-5.7815 0-9.0022 6.1312-5.3438 10.174l1.6583 1.8301-4.4083-0.59766c-3.8994-0.53031-4.8582-0.23916-8.3359 2.5312-3.4568 2.7538-4.4364 3.0554-8.1269 2.502-3.6405-0.54592-4.4121-0.32316-5.8204 1.6875-3.5585 5.0806-0.7153 23.701 6.3165 41.373 1.4107 3.5453 7.0819 20.834 8.6796 26.457 0.8528 3.0012 2.4393 7.1951 3.5235 9.3203 1.0842 2.1252 2.1391 5.1997 2.3457 6.832 0.3757 2.9691 3.2622 11.506 4.5273 13.391 0.3693 0.55 1.4654 3.925 2.4356 7.5 0.9701 3.575 2.1674 6.9988 2.6601 7.6074 0.4928 0.60861 1.3174 3.0836 1.8321 5.5 1.0498 4.9283 7.3659 23.704 9.6015 28.543 0.8007 1.7331 1.4551 3.6748 1.4551 4.3144 0 0.63962 1.1494 3.6759 2.5547 6.748 1.4052 3.0721 2.7928 6.9824 3.084 8.6875 0.5607 3.2833 1.8317 7.1706 3.9531 12.1 1.4575 3.3861 5.7709 15.716 7.8711 22.5 2.6439 8.54 7.5714 22.505 8.5527 24.236 0.5412 0.95504 0.9903 2.53 0.9903 3.5 0.0033 0.96996 0.6783 3.0535 1.5 4.6289 0.8216 1.5754 1.4941 3.3192 1.4941 3.875 0 0.55586 1.0625 3.541 2.3613 6.6348 1.2987 3.0938 3.5945 9.675 5.1016 14.625 4.2083 13.822 9.6201 30.612 11.119 34.5 0.7423 1.925 2.0863 5.975 2.9883 9 0.9021 3.025 2.2683 6.9173 3.0352 8.6504 0.7668 1.7332 1.4078 3.9832 1.4257 5 0.0175 1.0169 0.6926 2.7234 1.5 3.791 0.8075 1.0677 1.4688 2.7266 1.4688 3.6856 0 0.9591 0.4816 3.0102 1.0703 4.5585s1.0903 3.0395 1.1133 3.3145c0.0236 0.275 0.892 2.6543 1.9297 5.2871 1.0378 2.6329 1.8867 5.9385 1.8867 7.3457 0 1.4073 0.6185 3.753 1.375 5.2129 1.4595 2.8166 12.659 36.958 12.68 38.654 0.0068 0.55 0.8826 2.8 1.9453 5s1.9478 4.8306 1.9668 5.8457c0.0186 1.0151 0.6727 3.0401 1.4551 4.5 0.7823 1.4599 2.1501 5.1293 3.039 8.1543 0.8888 3.025 2.0011 6.4 2.4707 7.5 2.9387 6.8842 7.4801 19.89 8.7305 25 0.8075 3.3 2.029 6.9 2.7129 8 0.684 1.1 2.039 4.25 3.0117 7 2.1596 6.1048 3.4329 9.1847 5.2344 12.654 0.758 1.4599 1.3789 3.4422 1.3789 4.4043s1.1087 4.0944 2.4648 6.9609 2.9557 7.3906 3.5528 10.055c0.597 2.6641 1.4512 5.3123 1.9004 5.8848 0.8519 1.0857 3.9611 9.1273 7.1679 18.541 1.0305 3.025 2.3336 6.2813 2.8946 7.2363 0.5611 0.9551 1.0337 2.3051 1.0527 3 0.0187 0.695 0.9041 3.0637 1.9668 5.2637s1.9478 4.496 1.9668 5.1016c0.0186 0.6055 1.1461 3.1926 2.5059 5.75s3.189 7.2364 4.0664 10.398c0.8774 3.1621 2.2353 7.1 3.0156 8.75 2.6694 5.6443 6.4453 15.844 6.4453 17.408 0 0.8597 1.0649 3.8203 2.3652 6.5781 3.7258 7.9017 5.6348 12.5 5.6348 13.568 0 0.5423 1.0343 2.6632 2.2988 4.7148 1.2644 2.0515 2.7978 5.3055 3.4063 7.2305s2.5362 7.325 4.2851 12c1.749 4.675 4.5165 12.309 6.1504 16.965 1.6339 4.6558 3.3452 8.9308 3.8008 9.5 0.4556 0.5691 1.1618 2.595 1.5703 4.502 0.4084 1.9069 1.0816 4.1569 1.4961 5 2.7975 5.6892 4.9922 10.924 4.9922 11.906 0 0.6347 0.4323 1.9356 0.9609 2.8907 2.1948 3.9656 15.039 34.185 15.039 35.383 0 1.1176 4.3151 10.754 9.5605 21.354 2.4498 4.95 4.4493 9.45 4.4493 10-0.0064 1.3667 5.8523 12.445 8.1367 15.385 1.4285 1.8382 1.8571 4.1301 1.8711 10 0.0153 6.4225 0.451 8.3983 2.7812 12.615 2.921 5.2861 16.876 22.5 18.24 22.5 0.4416 0 1.0885 1.3065 1.4394 2.9043 0.3859 1.7568 4.0736 6.4808 9.3301 11.953 4.7803 4.9765 9.5908 10.721 10.689 12.764 4.6585 8.6616 20.017 23.501 26.272 25.385 3.8258 1.1527 5.4394 1.1431 11.061-0.0625 2.9066-0.6233 5.871-2.0591 7.2246-3.5 1.2623-1.3436 3.3138-2.4434 4.5605-2.4434s2.5087-0.3922 2.8047-0.8711c0.296-0.479 1.842-1.1304 3.4356-1.4492 1.7636-0.3527 4.1531-2.166 6.1054-4.6309 1.764-2.2273 3.9045-4.0488 4.7559-4.0488 2.0279 0 7.6545-3.4552 13.348-8.1973 2.5104-2.091 4.9505-3.8027 5.4218-3.8027s1.5673-0.6015 2.4356-1.3359 3.1531-1.9297 5.0781-2.6582 5.793-3.054 8.5938-5.1661c3.8317-2.8897 6.0332-3.8398 8.8984-3.8398 2.1532 0 6.1243-1.1728 9.1387-2.6992 4.2436-2.1487 6.0882-3.9251 9.041-8.709l3.709-6.0098 0.0546-9.7402 0.0547-9.7402-3.1543-3.3008c-1.7354-1.8154-4.3712-5.5508-5.8574-8.3008s-3.3266-5.4989-4.0898-6.1094c-1.8832-1.5065-6.3887-8.2282-6.3887-9.5312 0-0.5784-1.575-4.3713-3.5-8.4278-1.925-4.0566-3.5-7.8151-3.5-8.3535 0-0.5383-0.5625-1.3395-1.25-1.7793-1.211-0.7748-2.2113-2.3516-6.8477-10.799-1.2075-2.2-3.7045-5.9779-5.5488-8.3945-1.8444-2.4166-3.3535-4.8312-3.3535-5.3672 0-0.5361-1.9836-5.0851-4.4082-10.107-2.4245-5.0224-6.0749-13.181-8.1113-18.131s-4.3277-10.194-5.0918-11.654-1.3887-3.2777-1.3887-4.0391c0-0.7613-0.9-3.149-2-5.3066s-2-4.6081-2-5.4453c0-0.8371-1.392-4.4551-3.0938-8.0391-6.0291-12.698-6.9062-14.751-6.9062-16.176 0-0.7923-0.3607-1.8681-0.8008-2.3906-0.44-0.5225-1.8363-3.6492-3.1035-6.9492s-2.8793-7.35-3.582-9c-0.7028-1.65-1.8465-4.8-2.541-7s-2.3218-6.3333-3.6172-9.1855c-1.2954-2.8523-2.3555-5.5806-2.3555-6.0625s-0.9-2.7389-2-5.0157c-1.1-2.2767-2-4.5659-2-5.0879s-1.1206-3.3567-2.4902-6.2988c-1.3697-2.9421-2.49-6.3265-2.5-7.5195-0.0054-1.1929-0.6629-3.4429-1.461-5-2.4874-4.8529-5.3001-11.662-6.539-15.83-0.6538-2.2-2.3403-6.475-3.7481-9.5-3.9857-8.5643-4.9454-10.993-7.3125-18.5-1.214-3.85-2.8242-7.7098-3.5781-8.5781s-1.375-2.2183-1.375-3c-0.0036-1.1783-2.9036-9.8793-5.3066-15.922-0.3281-0.825-1.3391-4.2-2.2461-7.5s-2.2047-6.9-2.8829-8-1.7897-4.2436-2.4707-6.9863-1.6447-5.4783-2.1425-6.0782c-0.4979-0.6-1.8363-4.2062-2.9727-8.0136-1.1364-3.8075-3.1663-9.1719-4.5117-11.922-1.3453-2.75-2.5387-6.35-2.6524-8s-0.894-4.0892-1.7343-5.4199c-1.563-2.4753-4.3572-9.7818-8.8262-23.08-1.3863-4.125-3.0939-8.85-3.7949-10.5-0.7009-1.65-1.7839-5.025-2.4063-7.5s-1.5199-5.4-1.9941-6.5c-0.4743-1.1-2.2934-6.5-4.041-12s-3.8155-10.997-4.5957-12.215c-0.7802-1.2182-1.4219-3.0182-1.4219-4-0.0026-0.9819-1.1172-4.4852-2.4766-7.7852s-2.4831-6.7932-2.4961-7.7617-0.8736-3.6685-1.914-6-3.8123-10.313-6.1582-17.738c-2.3458-7.425-5.2966-15.3-6.5567-17.5-1.2602-2.2-2.9481-6.5246-3.7519-9.6113s-2.3657-7.3849-3.4707-9.5508c-1.1049-2.1659-2.4594-6.1663-3.0098-8.8887-0.5505-2.7224-2.6464-9.2242-4.6582-14.449-2.0119-5.225-4.2394-11.975-4.9492-15-1.2329-5.2538-4.7466-16.256-6.5469-20.5-2.4017-5.6624-7.0078-18.847-7.0078-20.059 0-0.76329-0.8763-3.3119-1.9473-5.6641-2.0301-4.4586-5.0807-13.47-7.666-22.648-0.832-2.9538-2.3836-6.9963-3.4492-8.9844-1.0655-1.9881-1.947-4.7458-1.959-6.1289-0.0116-1.3831-1.179-5.6656-2.5957-9.5156s-3.719-10.375-5.1152-14.5c-1.3963-4.125-3.1033-8.85-3.793-10.5-0.6896-1.65-2.9364-8.4-4.9922-15-5.2803-16.951-16.398-50.617-17.504-53-0.5102-1.1-1.8872-4.7-3.0605-8s-3.2096-8.3341-4.5254-11.188c-1.3158-2.8534-2.3926-5.5023-2.3926-5.8848 0-0.38245-1.575-3.7852-3.5-7.5625-1.925-3.7773-3.5-7.7828-3.5-8.9004s-1.125-4.2514-2.5-6.9648-2.5-5.4762-2.5-6.1387c0-0.66247-0.5907-1.9149-1.3125-2.7832-0.7218-0.8683-2.1398-3.6031-3.1504-6.0781-4.0328-9.8772-6.0705-13.794-10.703-20.568-2.6587-3.8881-4.834-7.5866-4.834-8.2168 0-1.9975-6.1639-8.2577-10.115-10.273-2.729-1.3922-4.5181-2.0105-6.3789-1.666zm-329.24 304.72c-5.1446 0-10.413 1.097-14.27 2.9727-0.8534 0.41508-1.7155 2.6156-2 5.1035-0.439 3.8396-0.9814 4.6416-4.4434 6.5781-2.1685 1.213-4.6435 3.0941-5.5 4.1797-0.9173 1.1627-3.4058 2.2566-6.0566 2.6621-4.2543 0.6508-12 4.8764-12 6.5469 0 1.5092-25.134 25.802-30.092 29.084-1.3508 0.89432-3.717 4.1167-5.2578 7.1622-3.3645 6.6498-5.4954 8.7279-9.8594 9.6152-3.564 0.7246-4.958 3.9846-2.8105 6.5723 0.8477 1.0217 0.8333 1.8492-0.0586 3.2773-1.0259 1.6428-0.3448 3.2278 4.873 11.328 6.8054 10.565 15.317 21.894 16.457 21.908 0.8442 0.0103 13.748 19.27 13.748 20.52 0 0.4405 1.1476 2.3069 2.5508 4.1464 1.4031 1.8396 3.2267 4.8065 4.0527 6.5938 0.8261 1.7873 2.9408 5.5769 4.6992 8.4199 4.0266 6.5108 14.381 24.14 17.75 30.221 1.4046 2.5351 4.0544 7.3094 5.8868 10.609 3.5125 6.326 16.32 31.027 23.691 45.69 2.4026 4.7792 4.3691 9.4694 4.3691 10.422s0.6083 2.4423 1.3516 3.3106c1.4319 1.6727 4.5533 7.5868 6.6386 12.578 0.6893 1.65 1.8149 4.125 2.502 5.5 0.687 1.375 1.8068 4.3 2.4883 6.5s2.2798 6.475 3.5507 9.5c4.8606 11.568 8.4727 21.309 8.4727 22.873 2e-3 0.8949 1.3355 4.3003 2.9629 7.5684s3.2338 7.3181 3.5703 9 1.3016 4.5784 2.1445 6.4356c0.8429 1.8573 1.612 3.8823 1.709 4.5 0.295 1.8824 6.7922 21.829 8.6719 26.623 0.9705 2.475 2.0729 6.3 2.4492 8.5 0.6389 3.7339 4.6666 18.207 7.9317 28.5 0.785 2.475 1.7333 6.075 2.1074 8 0.374 1.925 1.0024 3.95 1.3965 4.5 0.3942 0.55 1.2994 3.7 2.0117 7 1.2471 5.777 2.4986 10.725 5.6933 22.5 2.0108 7.4112 2.8243 11.004 8.377 37 0.9514 4.4541 3.3303 18.372 4.9551 29 0.4624 3.025 1.3606 10.225 1.9961 16 0.6356 5.775 1.6031 11.959 2.1504 13.744 0.5473 1.7848 1.3997 7.1848 1.8945 12 0.4948 4.8153 1.3444 12.131 1.8887 16.256s1.4741 12.9 2.0664 19.5c0.5924 6.6 1.3454 14.25 1.6718 17 1.805 15.204 2.7192 80.347 1.1543 82.232-0.8011 0.9657-0.7961 1.9947 0.0196 3.7852 0.6162 1.3522 0.9342 3.0266 0.707 3.7207-0.3765 1.1502-1.3664 11.203-2.0937 21.262-0.1591 2.2-0.7712 8.95-1.3614 15s-1.3371 13.925-1.6582 17.5-0.8569 7.175-1.1914 8c-0.3344 0.825-1.1663 6.45-1.8476 12.5-0.6814 6.05-1.9591 14.6-2.8399 19s-2.0092 10.475-2.5078 13.5c-1.0195 6.1857-5.5893 24.473-6.4727 25.902-0.3165 0.5121-1.4287 4.9054-2.4707 9.7637-1.0419 4.8583-2.3355 10.184-2.875 11.834s-2.4369 7.5-4.2168 13-4.0826 11.888-5.1171 14.195c-1.0345 2.3074-1.8826 4.5574-1.8926 5-7e-3 0.4427-1.8526 4.4047-4.0996 8.8047s-4.8988 10.025-5.8946 12.5c-6.1936 15.394-10.408 22.895-19.744 35.143-2.8875 3.7881-5.25 7.136-5.25 7.4394 0 1.4665-5.4908 7.4767-8.8789 9.7188-2.0953 1.3866-7.0545 3.489-11.02 4.6699-3.9651 1.1808-7.4446 2.7595-7.7325 3.5098-0.7933 2.0673-3.1118 2.5939-5.8769 1.334-2.0301-0.925-2.8316-0.8179-4.3848 0.5878-1.6176 1.4638-4.1125 1.7227-16.754 1.7227-14.613 0.0029-39.09-2.2671-43.568-4.041-1.2568-0.4978-5.8852-1.6824-10.285-2.6328s-9.35-2.4052-11-3.2324c-1.65-0.8273-3.7813-1.8899-4.7363-2.3614-0.9551-0.4715-2.6488-0.8574-3.7637-0.8574s-2.8086-0.4171-3.7637-0.9277c-3.7135-1.9853-10.915-5.0723-11.834-5.0723-1.2824 0-26.876-12.667-31.633-15.656-2.0516-1.2891-4.3431-2.3438-5.0937-2.3438-0.7507 0-2.2134-0.9365-3.25-2.082-1.0366-1.1454-3.2431-2.7304-4.9043-3.5215-4.1397-1.9713-9.0173-5.1134-15.75-10.146-3.1269-2.3375-6.0518-4.25-6.5-4.25-0.4481 0-2.3886-1.2966-4.3106-2.8809s-8.6607-6.7559-14.976-11.492c-14.6-10.949-16.419-12.421-20.225-16.377-1.7196-1.7875-3.4509-3.25-3.8457-3.25s-5.1968-4.3875-10.672-9.75c-5.4752-5.3625-13.394-12.817-17.598-16.564-4.2039-3.7477-7.6445-7.2024-7.6445-7.6777s-3.2625-4.2039-7.25-8.2851c-3.9875-4.0813-8.15-8.5671-9.25-9.9688s-6.6392-7.6931-12.309-13.98c-9.7735-10.839-18.074-21.903-29.088-38.773-2.6931-4.125-5.618-8.2875-6.5-9.25s-1.6035-2-1.6035-2.3066c0-0.3065-2.025-3.4552-4.5-6.9961-2.475-3.541-4.5-6.707-4.5-7.0352 0-0.3283-0.9-1.7403-2-3.1387-1.1-1.3985-2-3.3133-2-4.2539s-0.8686-2.4948-1.9297-3.455c-1.0611-0.9603-2.6682-3.1688-3.5723-4.9063-2.3956-4.6039-3.7372-6.836-6.121-10.18-1.1682-1.6386-3.085-5.0035-4.2579-7.4785-1.173-2.475-3.7254-7.2-5.6738-10.5s-4.219-7.575-5.0449-9.5c-2.4684-5.7533-4.8127-10-5.5195-10-0.3653 0-0.9747-1.2347-1.3536-2.7441-0.3788-1.5094-1.1506-3.3021-1.7168-3.9844-0.8981-1.0821-14.5-28.496-18.244-36.772-0.7466-1.65-3.0315-6.6-5.0781-11-11.974-25.743-14.222-30.773-14.969-33.5-0.9697-3.5388-7.4453-19.981-9.1191-23.154-0.7699-1.4599-1.4004-3.3168-1.4004-4.1269 0-0.8103-0.675-2.0341-1.5-2.7188s-1.5-2.5123-1.5-4.0625-0.397-3.065-0.8828-3.3652c-0.4857-0.3002-1.8987-3.8139-3.1406-7.8086-1.2418-3.9948-2.8239-8.6137-3.5157-10.264s-2.4204-6.6-3.8398-11c-1.4193-4.4-3.7133-11.492-5.0996-15.76-1.3862-4.2674-2.5215-8.3038-2.5215-8.9707s-1.3077-5.4994-2.9062-10.74c-1.5987-5.2407-4.0941-13.444-5.545-18.228s-3.5602-13.335-4.6875-19-2.2992-10.976-2.6054-11.801-0.6782-2.0779-0.8243-2.7852c-0.1462-0.7072-0.7406-3.4072-1.3222-6-0.5816-2.5927-1.7528-9.2148-2.6016-14.715s-2.4641-15.85-3.5898-23-2.2328-14.8-2.461-17c-0.2281-2.2-0.8879-6.7-1.4668-10-1.4711-8.3866-2.913-23.772-2.955-31.551-0.02-3.6749-0.5565-7.0701-1.2227-7.7363-1.8382-1.8379-1.8028-71.309 0.0371-73.529 0.7419-0.8952 1.7799-3.3282 2.3066-5.4063 0.5268-2.078 1.4056-5.5599 1.9532-7.7382 0.5475-2.1784 1.4508-4.5085 2.0078-5.1797 0.557-0.6711 1.269-3.702 1.582-6.7344 0.5291-5.1271 0.3122-5.9001-3.0976-11.037-2.0167-3.0383-4.2811-5.8769-5.0313-6.3067-0.7502-0.4297-2.3606-2.4799-3.5801-4.5566-1.2196-2.0767-3.0662-4.23-4.1035-4.7851-1.0373-0.5552-1.8867-2.0584-1.8867-3.3399s-0.8592-3.4236-1.9102-4.7598c-1.0511-1.3362-3.5646-5.2478-5.5839-8.6933-2.0193-3.4454-4.664-6.7169-5.877-7.2695-1.3712-0.6248-2.9013-2.9671-4.0449-6.1915-2.3093-6.511-6.5949-12.818-9.9199-14.598-1.404-0.7513-3.9499-3.1033-5.6563-5.2266-1.7064-2.1234-3.671-3.8613-4.3672-3.8613-2.8145 0-6.7682 5.7908-8.2285 12.051-1.7277 7.4057-3.285 9.9269-4.6367 7.5117-3.0066-5.3726-9.0899 3.3598-13.385 19.211-0.2791 1.0302-0.7346 1.0302-2.3906 0-1.694-1.0538-2.5226-1.0005-4.8145 0.3106-2.0373 1.1655-3.206 1.3063-4.4316 0.5332-2.0958-1.3219-8.0482 0.6616-12.08 4.0254-1.5547 1.2971-3.8801 2.3574-5.1679 2.3574-3.9671 0-5.3821 1.0342-7.6621 5.5996-1.9453 3.8951-2.5854 4.4004-5.5665 4.4004-3.7884 0-8.8246 4.131-7.9179 6.4941 0.3141 0.8185-0.2532 1.6548-1.3594 2.0059-2.684 0.8518-3.6638 4.5419-1.6055 6.0469 0.902 0.6596 1.3863 1.8598 1.0762 2.6679-0.4389 1.1437-1.2938 0.7838-3.8574-1.623-1.8116-1.7008-3.5762-3.8793-3.9219-4.8418-0.8459-2.3554-3.9622-2.2127-6.2226 0.2852-1.0131 1.1194-2.4666 1.7963-3.2286 1.5039-4.004-1.5365-11.487 6.5618-13.291 14.385-0.7071 3.0665-1.6019 6.0262-1.9902 6.5762-3.0854 4.3701-6.3667 66.349-3.9942 75.449 0.509 1.9524 1.4131 11.651 2.0098 21.551 0.5968 9.9 1.5004 20.25 2.0059 23 1.1814 6.4264 3.7923 26.968 4.5761 36 0.3342 3.85 0.8745 7.675 1.2012 8.5 0.3268 0.825 1.4207 6 2.4317 11.5 1.0111 5.5 2.0462 11.125 2.2988 12.5 0.2527 1.375 1.1021 6.325 1.8887 11 0.7865 4.675 2.1174 10.525 2.957 13 0.8397 2.475 1.8151 6.3 2.168 8.5 0.3528 2.2 1.0232 4.9 1.4882 6 0.7737 1.8303 1.7635 5.5541 6.5137 24.5 0.8964 3.575 2.4751 8.75 3.5098 11.5 1.0348 2.75 2.6206 7.925 3.5234 11.5 0.9027 3.575 2.0108 6.95 2.4629 7.5s1.2769 3.25 1.832 6c0.9361 4.6371 4.9441 16.363 7.1778 21 0.5298 1.1 2.5934 6.95 4.5859 13s3.9719 11.45 4.3984 12 1.1039 2.575 1.5059 4.5 1.0576 3.95 1.457 4.5 1.4247 2.8 2.2793 5c0.8545 2.2 2.7257 6.5584 4.1582 9.6855 1.4325 3.1273 2.6055 6.1743 2.6055 6.7696 0 0.5954 1.0807 3.2101 2.4023 5.8125s3.0559 6.3074 3.8536 8.2324c3.6932 8.9122 6.3725 15.052 9.4296 21.606 1.8228 3.9077 3.3145 7.6437 3.3145 8.3027s1.125 2.8535 2.5 4.877 2.5 4.1693 2.5 4.7675c0 0.5981 5.0165 10.956 11.148 23.018 6.1319 12.062 13.398 26.43 16.146 31.93 2.7489 5.5 6.8634 12.925 9.1426 16.5 2.2793 3.575 4.9508 8.075 5.9355 10 3.7707 7.3711 6.2066 11.638 8.377 14.668 1.2375 1.7277 2.25 3.4981 2.25 3.9336 0 0.4356 1.0639 2.3892 2.3652 4.3437 8.2715 12.424 14.24 21.813 14.906 23.449 0.4243 1.0425 2.2243 3.9675 4 6.5 1.7756 2.5325 3.6785 5.3249 4.2285 6.2051 3.3675 5.3894 6.4413 9.607 7.8633 10.787 0.8998 0.7468 1.6367 1.9552 1.6367 2.6856 0 0.7303 0.6031 1.6891 1.3398 2.1289 1.1162 0.6664 4.8482 5.9914 10.129 14.451 1.6814 2.6937 12.729 17.142 15.176 19.848 1.2434 1.375 5.8678 7 10.277 12.5 4.4095 5.5 9.5712 11.8 11.471 14 1.8996 2.2 6.3016 7.3473 9.7812 11.438 3.4796 4.0901 9.4762 10.895 13.326 15.123s8.8 9.8459 11 12.484c3.8457 4.6122 48.626 49.924 61 61.725 3.3 3.147 7.07 7.1032 8.3789 8.791s5.5839 5.7281 9.5 8.9766c10.903 9.0447 23.028 19.669 32 28.045 4.4671 4.1701 9.6961 8.6549 11.621 9.9649 1.925 1.3101 6.875 5.1268 11 8.4824s10.65 8.1248 14.5 10.598c3.85 2.473 8.125 5.2681 9.5 6.2128s5.2 3.4951 8.5 5.668 6.5134 4.3816 7.1406 4.9082c0.6273 0.5265 5.3843 3.219 10.572 5.9824 5.1879 2.7633 12.543 6.8412 16.344 9.0625 3.8012 2.2212 7.4912 4.0391 8.1993 4.0391 0.708 0 2.9649 1.098 5.0156 2.4395 2.0507 1.3416 5.0785 2.7636 6.7285 3.1601s4.679 1.7736 6.7305 3.0606c2.0516 1.287 4.6314 2.3398 5.7324 2.3398 1.1009 0 5.947 1.8239 10.77 4.0527 4.8224 2.2287 10.793 4.3164 13.268 4.6387s7.8347 1.4233 11.91 2.4473c4.0754 1.0239 9.0254 1.8955 11 1.9375 1.9745 0.0418 5.1648 0.6825 7.0898 1.4238 4.3418 1.672 5.7106 1.7773 6.5 0.5 0.3399-0.55 2.7873-1 5.4375-1 3.0632 0 5.2711-0.5464 6.0625-1.5 0.6847-0.825 1.8097-1.5 2.5-1.5s1.8153 0.675 2.5 1.5c1.5113 1.821 6.5943 1.9819 7.7012 0.2441 0.4398-0.6905 2.3738-1.7988 4.2988-2.4629 3.6933-1.274 28.662-3.6094 29.967-2.8027 0.989 0.6112 10.755-1.1568 19.033-3.4453 3.575-0.9884 9.155-2.2895 12.398-2.8926 6.5292-1.214 9.8111-3.481 9.3828-6.4804-0.2039-1.4294 0.5457-2.2391 2.7188-2.9375 1.65-0.5303 4.575-2.4358 6.5-4.2344s4.5593-3.5907 5.8535-3.9805c1.2942-0.3899 3.9455-1.7875 5.8906-3.1074 1.945-1.32 4.2608-2.408 5.1465-2.418 0.8858-0.0098 4.7594-2.2643 8.6094-5.0097 3.85-2.7453 9.025-5.9121 11.5-7.0372 10.025-4.5569 16.963-8.3241 28-15.207 8.4877-5.2929 8.6858-5.4252 16.453-10.978 3.6541-2.6125 6.9759-4.75 7.3828-4.75s2.299-1.3313 4.2032-2.959c1.9042-1.6276 3.9229-2.978 4.4882-3 0.5652-0.0223 1.7581-0.8285 2.6485-1.791s3.5011-3.1 5.8027-4.75c4.6929-3.3643 34.349-33.5 36.857-37.453 0.889-1.401 2.19-2.9059 2.8907-3.3457s1.2734-1.452 1.2734-2.2481 1.501-3.137 3.334-5.2011c4.7449-5.3428 11.199-14.334 14.701-20.48 2.7026-4.7424 9.6937-16.922 11.922-20.772 2.7343-4.7243 12.982-27.164 16.02-35.08 1.1439-2.9807 2.4905-6.3199 2.9922-7.4199 0.5015-1.1 2.5213-6.6904 4.4902-12.422s3.9621-10.906 4.4297-11.5 1.1522-2.7458 1.5195-4.7851c0.3673-2.0392 1.3221-4.9642 2.123-6.5 0.8011-1.5357 1.4713-3.693 1.4883-4.793 0.0169-1.1 0.9548-4.7 2.084-8 3.2539-9.5089 6.3384-24.247 9.8379-47 0.6767-4.4 1.6343-9.575 2.127-11.5 1.505-5.8806 4.9341-36.676 5.0644-45.477 0.0487-3.2868 0.5089-7.0794 1.0215-8.4277s1.1818-11.034 1.4883-21.523c0.3064-10.49 0.9619-19.499 1.457-20.022 1.1619-1.2267 1.1851-67.257 0.0234-67.975-0.4828-0.2984-1.2074-8.539-1.6093-18.311s-1.0203-18.216-1.3731-18.766-0.6966-2.35-0.7656-4c-0.5484-13.134-1.8169-24.299-3.5801-31.5-1.1447-4.675-2.0421-9.175-1.9941-10 0.0485-0.825-0.5809-7.575-1.3985-15-1.5388-13.975-3.0361-21.626-4.6425-23.707-0.512-0.6634-0.6814-1.6117-0.375-2.1075 0.3065-0.4958 0.103-2.4271-0.4532-4.2929s-1.4066-5.1926-1.8886-7.3926-1.1786-5.125-1.5489-6.5-1.3281-7.45-2.1289-13.5c-1.3914-10.512-4.3977-23.034-6.4179-26.736-0.5211-0.9551-0.9663-3.2051-0.9903-5-0.0241-1.795-0.7209-5.0637-1.5468-7.2637-0.8258-2.2-1.6875-4.9-1.9161-6-2.621-12.607-4.8369-21.261-6.0351-23.578-0.8024-1.5516-1.9436-5.2061-2.5371-8.1211-0.5934-2.915-2.5711-9.8008-4.3946-15.301-1.8234-5.5-4.0968-12.7-5.0507-16-0.9538-3.3-2.1262-6.4267-2.6055-6.9492s-0.8711-2.5027-0.8711-4.4004-1.0858-5.746-2.4121-8.5508-3.5367-8.6996-4.9141-13.1c-6.2196-19.868-9.9628-31.078-10.686-32-0.431-0.55-1.4861-3.3787-2.3438-6.2871-0.8577-2.9085-2.4278-6.9585-3.4883-9-1.7219-3.3151-4.1681-9.3181-8.8496-21.713-2.8516-7.5502-6.6085-16.017-12.453-28.057-3.2189-6.6311-5.8535-12.656-5.8535-13.389s-1.35-3.5274-3-6.209-3-5.1712-3-5.5332c0-1.3682-9.3879-20.015-12.623-25.072-1.8571-2.9032-3.377-5.7044-3.377-6.2246s-1.35-2.4841-3-4.3633c-1.65-1.8793-3-4.0143-3-4.7461 0-0.7316-1.0942-2.2485-2.4316-3.3691-1.3374-1.1207-4.6972-6.5371-7.4668-12.037s-5.9482-11.35-7.0625-13c-1.1144-1.65-2.0332-3.675-2.0332-4.5-4e-3 -0.825-1.9386-3.975-4.2989-7-2.3604-3.025-5.3396-7.75-6.6211-10.5s-3.3992-6.2715-4.707-7.8262c-1.3079-1.5547-2.3789-3.2209-2.3789-3.7011s-1.35-2.8736-3-5.3184-3.0076-4.8286-3.0176-5.2988c-0.01-0.4703-1.36-2.8356-3-5.2559-1.64-2.4202-2.9824-5.2758-2.9824-6.3457s-0.6209-3.1397-1.3789-4.5996-1.9955-3.9792-2.75-5.5996c-0.7545-1.6205-4.7975-6.5704-8.9844-11-4.1868-4.4296-9.3626-10.08-11.502-12.555-2.1394-2.475-6.363-7.0743-9.3868-10.221s-7.3941-7.9246-9.7128-10.619c-2.3187-2.6945-5.8784-5.6882-7.9102-6.6524-3.8854-1.8437-8.9853-6.6203-13.676-12.811-2.6462-3.4923-3.1124-3.6973-8.4297-3.6973zm-621.36 214.56c-1.6718 0.0257-3.2154 2.1987-2.5234 4.0019 0.3349 0.8726 1.3971 1.4378 2.3613 1.254 2.1985-0.419 2.8763-4.3613 0.8809-5.127-0.238-0.0913-0.48-0.1326-0.7188-0.1289zm-189.47 57.334-9.4668 4.5781c-5.2065 2.5175-10.142 5.0245-10.967 5.5723s-3.075 1.6809-5 2.5175c-1.925 0.8367-9.125 4.2635-16 7.6133-6.875 3.3499-18.125 8.8128-25 12.141-6.875 3.3278-14.075 6.8742-16 7.8808s-10.475 5.275-19 9.4863c-8.525 4.2112-16.625 8.4193-18 9.3496-1.375 0.9305-4.1432 1.9898-6.1504 2.3555-2.0073 0.3658-4.1967 1.3268-4.8672 2.1348-0.6706 0.8079-2.972 1.9933-5.1133 2.6347-2.1413 0.6416-4.3931 1.77-5.0039 2.5059-0.6108 0.736-1.765 1.3379-2.5644 1.3379s-4.0844 2.025-7.3008 4.5-6.8117 4.5-7.9902 4.5c-1.1784 0-3.6173 1.125-5.42 2.5s-4.3059 2.5-5.5605 2.5c-3.3034 0-22.014 10.045-23.807 12.781-2.1318 3.2535-6.1144 5.0103-10.223 4.5079-3.0122-0.3684-4.2478 0.2117-8.8594 4.164-7.0241 6.0198-8.9125 6.9637-13.328 6.6582-3.2206-0.2229-3.8878 0.1331-5.2754 2.8164-1.2035 2.3272-2.2723 3.0723-4.4082 3.0723-1.5774 0-3.6417 0.9071-4.6855 2.0605-1.1452 1.2655-2.6187 1.866-3.8164 1.5528-2.3969-0.6268-5.627 0.981-5.627 2.8008 0 1.5646-4.209 3.2903-8.4688 3.4726-1.7925 0.0768-3.7726 1.081-5 2.5352-2.7582 3.268-7.5365 5.4902-10.56 4.9121-1.7174-0.3282-3.4246 0.3241-5.4824 2.0937-1.6435 1.4134-4.1226 2.5696-5.5098 2.5703-1.3871 7e-4 -4.1316 1.3267-6.0976 2.9473-2.4574 2.0255-4.2489 2.7707-5.7325 2.3828-1.5415-0.4031-3.6836 0.6115-7.4961 3.5528-3.1435 2.4252-6.4171 4.1191-7.9648 4.1191-4.1968 0-13.176 4.5796-14.447 7.3691-0.9889 2.1704-1.7151 2.4604-5.7949 2.3067-4.1408-0.1561-4.9681 0.1892-7.3769 3.0742-1.4925 1.7875-3.5112 3.25-4.4844 3.25s-2.9122 0.9-4.3106 2c-1.3985 1.1-3.0627 2-3.6972 2-0.6346 0-2.9365 0.9145-5.1153 2.0332-2.8855 1.4815-4.9746 1.8665-7.6914 1.416-3.1051-0.5149-4.494-0.101-8.2988 2.4668-2.5137 1.6965-5.415 3.084-6.4473 3.084-3.5731 0-16.73 6.7696-17.285 8.8945-0.3687 1.4096-1.93 2.3766-5.1504 3.1875-2.5417 0.6401-4.8575 1.5435-5.1445 2.0078-0.2869 0.4644-1.8215 0.5834-3.4102 0.2657-3.2555-0.6511-11.432 2.012-14.533 4.7324-1.1 0.9648-4.925 2.2713-8.5 2.9043s-7.9614 2.0034-9.748 3.0449c-1.7867 1.0415-5.4912 2.191-8.2325 2.5547-2.7413 0.3636-5.4981 1.2798-6.125 2.0352s-1.8374 1.373-2.6894 1.373c-2.4675 0-14.509 5.0344-16.705 6.9844-1.1 0.9766-3.6779 2.3659-5.7285 3.0879l-3.7285 1.3144-4.7715-5.1465c-4.9823-5.3732-8.4163-7.2402-13.314-7.2402-3.7804 0-6.4883 3.8232-5.4922 7.752 1.8151 7.1587 1.7871 10.342-0.1035 11.738-1.1542 0.8523-2.2212 1.02-2.8105 0.4414-1.8235-1.7903-4.5029-0.9724-5.1406 1.5684-0.5234 2.0854-1.2209 2.5-4.2129 2.5-2.5327 0-4.4142 0.7925-6.4004 2.6953l-2.8125 2.6934-3.7852-3.6934c-6.1373-5.9929-10.199-4.3845-10.199 4.0391 0 4.2909 1.3872 6.2656 4.4004 6.2656 2.7288 0 0.8038 1.7352-2.4004 2.1641-2.079 0.2783-2.5516 0.9491-2.8047 3.9824l-0.3047 3.6484-7.6035-1.0195-2.2051 4.5566c-1.8265 3.773-2.0375 5.1675-1.2246 8.1114 0.5399 1.9555 0.6132 3.5566 0.1621 3.5566-0.451 0-1.2183-1.6875-1.7031-3.75-0.7028-2.9901-1.3975-3.8111-3.4336-4.0508-3.2595-0.3836-4.6516 1.3322-5.0586 6.2363l-0.3242 3.9102-2.3203-4.6738c-4.1789-8.4165-7.7067-5.0151-8.3574 8.0566-0.1914 3.8454-0.3595 4.0949-1.8457 2.75-2.0391-1.8449-2.9313-1.8476-6.6036-0.0156-3.5297 1.7608-7.004 1.0592-7.6875-1.5547-0.662-2.5314-3.2112-2.4245-5.0585 0.2129-1.1671 1.6663-1.2494 2.6852-0.3829 4.75 0.6067 1.4458 1.1377 5.7789 1.1797 9.6289 0.0592 5.4561 0.6682 8.2131 2.7598 12.5 3.9215 8.0374 10.342 22.888 11.889 27.5 0.738 2.2 1.8883 4.675 2.5566 5.5 0.6684 0.825 1.5075 2.85 1.8652 4.5 0.5731 2.6432 1.7131 5.9044 4.543 13 0.4387 1.1 2.1566 5.15 3.8184 9 1.6617 3.85 3.3324 8.125 3.7129 9.5 0.3804 1.375 1.4933 4.3 2.4726 6.5 0.9792 2.2 2.5312 6.3573 3.4473 9.2383 0.916 2.8811 2.0799 5.4946 2.5879 5.8086 0.5079 0.3139 0.9238 1.4769 0.9238 2.584s1.0706 3.8935 2.3789 6.1914c1.3083 2.298 3.3945 7.3277 4.6348 11.178 2.0018 6.2139 4.46 12.318 7.1699 17.795 0.4882 0.9867 2.4791 6.3867 4.4238 12 1.9446 5.6132 3.9477 11.105 4.4512 12.205 0.9859 2.1537 6.888 18.53 9.9102 27.5 1.0192 3.025 2.5648 6.85 3.4355 8.5s1.5898 3.9863 1.5898 5.1914c0.0034 1.205 0.4101 2.4406 0.9043 2.7461 0.4942 0.3054 2.0823 4.2246 3.5293 8.7109 1.4471 4.4862 3.6733 10.901 4.9473 14.254s3.3541 9.2477 4.623 13.098 2.6367 7.45 3.0391 8 1.0609 2.575 1.4629 4.5 1.0841 3.95 1.5156 4.5 1.5632 4.15 2.5156 8c0.9525 3.85 2.5231 8.575 3.4903 10.5 2.1887 4.3558 3.6501 8.5444 6.1055 17.5 1.0556 3.85 2.3558 7.9 2.8886 9s2.5538 7.175 4.4903 13.5c1.9366 6.325 4.6401 14.975 6.0078 19.223s2.4863 8.4294 2.4863 9.291 0.8396 3.2348 1.8652 5.2754 2.1572 5.3286 2.5157 7.3066c0.3584 1.9779 1.6179 5.5779 2.7988 8 1.181 2.422 2.4743 5.9793 2.873 7.9043s1.9226 7.325 3.3868 12c1.4643 4.675 3.2973 11.2 4.0742 14.5s2.5541 9.5497 3.9492 13.889c1.3952 4.3389 2.5371 8.487 2.5371 9.2168 0 0.7299 0.7375 3.0301 1.6387 5.1113 2.7914 6.446 3.1978 7.6669 3.8261 11.49 0.3352 2.0392 1.2655 4.9642 2.0664 6.5 0.8011 1.5357 1.4629 3.7793 1.4629 4.9844 0.0034 1.205 0.4069 2.4376 0.8965 2.7402 0.4896 0.3025 1.6761 3.8162 2.6367 7.8086s2.0755 7.7098 2.4786 8.2598c0.4032 0.55 1.0304 2.6551 1.3945 4.6777 0.3642 2.0227 2.2234 8.5441 4.1308 14.492 1.9076 5.9482 3.4688 11.741 3.4688 12.873s0.3933 2.4853 0.873 3.0078c0.4798 0.5225 1.6701 4.3242 2.6465 8.4492s2.835 9.9191 4.1289 12.875c1.2939 2.956 2.3678 6.556 2.3868 8 0.0195 1.4441 0.6788 3.75 1.4648 5.125s1.4448 3.7113 1.4648 5.1914c0.0195 1.48 0.4852 2.9687 1.0352 3.3086s1 1.6482 1 2.9062 0.6829 3.655 1.5176 5.3282c1.1445 2.2942 1.2675 3.7002 0.5 5.7187-1.7565 4.62-1.2181 7.3387 1.914 9.6543 2.71 2.0036 2.8252 2.3361 1.4981 4.3614-1.5877 2.423-1.0436 3.5312 1.7363 3.5312 2.9761 0 2.154 1.4844-3.5019 6.3164-4.6752 3.9941-5.2805 4.9326-4.8907 7.5879 0.6532 4.4507 1.8542 5.0411 13.158 6.459 2.7213 0.3413 4.3445 3.3502 7.6231 14.137 0.6687 2.2 2.2045 6.475 3.4141 9.5 1.2095 3.025 2.4135 6.4 2.6757 7.5 0.6996 2.9352 5.1195 17.347 9.3535 30.5 2.0361 6.325 4.468 14.2 5.4024 17.5 1.7073 6.0298 4.0665 12.561 5.6641 15.676 0.4725 0.9214 1.152 3.8464 1.5097 6.5 0.3577 2.6537 1.4385 6.3992 2.4024 8.3242s2.221 5.075 2.7929 7c4.1282 13.896 7.8998 25.941 10.82 34.549 1.8752 5.5269 3.4102 10.821 3.4102 11.764 0 0.9432 0.3844 2.4961 0.8535 3.4512 2.8152 5.7319 4.0455 9.2052 4.5547 12.857 0.316 2.2666 1.4678 6.0916 2.5606 8.5 1.0926 2.4083 1.9977 5.4035 2.0097 6.6562 0.0121 1.2526 1.5346 6.8776 3.3848 12.5 4.9422 15.018 7.5584 23.776 8.2812 27.723 0.3525 1.925 1.1907 4.625 1.8633 6 0.6727 1.375 1.8031 4.975 2.5117 8 0.7085 3.025 2.7887 10 4.6211 15.5 1.8325 5.5 3.3357 11.373 3.3457 13.051 0.0077 1.6775 0.4054 3.4775 0.8848 4s2.5305 6.3492 4.5586 12.949c7.0163 22.833 7.8264 24.458 15.848 31.801 10.33 9.4562 10.701 9.8252 16.223 16.16 4.3493 4.9895 7.9974 8.0382 14.4 12.039 0.8802 0.55 3.5028 2.6875 5.8281 4.75 2.3252 2.0625 4.6745 3.75 5.2227 3.75 0.5481 0 1.6909 1.3424 2.539 2.9824 0.8479 1.6397 4.701 6.1383 8.5606 9.9981 8.6121 8.612 12.005 9.1028 15.82 2.2851 0.6463-1.1549 2.5283-1.6995 6.4082-1.8535 3.1489-0.125 6.602-0.9431 8.0898-1.918 3.106-2.035 6.6309-7.4579 6.6309-10.201 0-1.1325 1.0639-2.4571 2.5-3.1114 1.4726-0.671 2.5-1.9732 2.5-3.1699 0-1.822 0.4906-1.9848 4.7441-1.5683 4.1082 0.4023 5.1121 0.1119 7.5-2.1758 1.5163-1.4527 2.7559-3.181 2.7559-3.8399 0-1.6348 3.8218-4.0111 7.8887-4.9043 3.8004-0.8347 9.0844-3.6866 13.824-7.4629 7.7949-6.2103 9.4522-7.2124 12.824-7.7597 2.4259-0.3936 4.3235-1.5814 5.9043-3.6914 7.1727-9.5744 8.3687-17.621 3.8887-26.178-2.9596-5.6526-2.6497-8.4316 0.9394-8.4316 1.2823 0 2.7588-0.3784 3.2813-0.8398 0.5225-0.4615 3.4242-1.3371 6.4492-1.9454 12.707-2.5552 20.007-4.2453 28.5-6.5996 9.2922-2.5758 21.54-5.7611 32-8.3222 3.3-0.808 7.6657-2.1638 9.7012-3.0118 2.0354-0.848 5.4104-1.6589 7.5-1.8027 2.0895-0.1439 5.5656-1.0245 7.7246-1.957 4.0099-1.7319 11.01-3.8985 22.574-6.9863 3.575-0.9546 8.525-2.3874 11-3.1836s8.7071-2.5591 13.85-3.918c5.1425-1.359 10.092-2.8528 11-3.3203s3.3932-1.1658 5.5234-1.5508 4.6052-1.0593 5.5-1.498c2.9435-1.4429 8.5547-3.2415 12.891-4.1329 2.3454-0.4821 5.1064-1.3265 6.1347-1.8769 1.0284-0.5503 6.0851-2.1208 11.236-3.4883s12.671-3.6281 16.711-5.0254 7.9722-2.541 8.7363-2.541 5.4516-1.35 10.418-3 9.5863-3.0059 10.266-3.0059c0.6793-0.0033 2.4348-0.6327 3.9024-1.3984 1.4675-0.7656 4.6175-1.7193 7-2.1191 2.3824-0.3999 5.2198-1.3456 6.3047-2.1016 1.0849-0.7561 2.9712-1.375 4.1914-1.375s2.4606-0.3914 2.7558-0.8691c0.2953-0.4778 2.4589-1.1742 4.8086-1.5489 4.4393-0.7078 12.995-3.2322 16.008-4.7226 0.9551-0.4725 2.4278-0.8594 3.2735-0.8594 1.7825 0 22.421-6.4972 27.273-8.5859 1.8062-0.7775 4.3432-1.4141 5.6367-1.4141s3.6414-0.6725 5.2168-1.4941c1.5754-0.8217 3.5666-1.5 4.4258-1.5 0.8592-0.0034 3.4244-0.9059 5.7012-2.0059 2.2767-1.1 4.9717-2 5.9883-2s2.2763-0.369 2.7988-0.8184c0.5225-0.4495 9.7242-3.6455 20.449-7.1035 20.658-6.6608 32.94-11.024 39.5-14.035 2.2-1.0097 5.125-2.1527 6.5-2.5391s5.313-2.0079 8.752-3.6035c3.4388-1.5956 6.687-2.9004 7.2168-2.9004 0.8799 0 6.3023-2.1535 10.064-3.9961 0.8431-0.4129 3.0931-1.0838 5-1.4922 1.907-0.4085 3.9538-1.1343 4.5488-1.6113 0.595-0.4771 4.87-2.4052 9.5-4.2852 4.63-1.8799 12.693-5.4185 17.918-7.8632s10.85-4.7732 12.5-5.1758c1.65-0.4027 3.675-1.3032 4.5-2s3.5002-2.0421 5.9434-2.9903c2.4433-0.9482 5.6757-2.602 7.1836-3.6757 1.5078-1.0737 4.6316-2.62 6.9433-3.4356 3.0291-1.0687 7.3371-4.6238 15.422-12.728 6.1701-6.1853 11.734-12.23 12.363-13.432 1.5912-3.0365 1.4287-6.8337-0.3555-8.3145-2.5376-2.106-1.7207-3.6916 4.25-8.2441 4.8204-3.6754 5.75-4.884 5.75-7.4825 0-1.7049 0.3375-3.4391 0.75-3.8535 1.0789-1.0838 0.924-4.8475-0.248-6.0195-0.6647-0.6647 0.3383-2.3033 3-4.9024 2.1992-2.1474 3.998-4.7593 3.998-5.8046s2.8584-5.3413 6.3516-9.5469c8.004-9.6365 8.2512-10.18 8.498-18.646 0.2221-7.6218 0.9561-12.437 2.1348-14 0.4149-0.55 1.305-2.705 1.9765-4.7891l1.2207-3.789-4.2343-5.711c-6.2987-8.4965-7.3965-9.1634-15.139-9.1894-3.68-0.0122-6.9816-0.4939-7.3379-1.0703-0.3945-0.6383-2.3311-0.7956-4.9531-0.4024-4.0621 0.6091-7.3253-0.2506-13.725-3.6152-0.9385-0.4934-3.6159-1.2027-5.9512-1.5762-3.8772-0.6199-7.5528-1.833-16.574-5.4765-2.5573-1.0329-4.1496-1.06-7.6309-0.1289-3.0133 0.8059-5.4586 0.8733-7.7617 0.2128-4.9537-1.4207-7.8989-1.1033-12.445 1.3438-5.974 3.2156-13.318 7.8733-16.463 10.441-1.5156 1.2375-3.6476 2.25-4.7383 2.25-1.0908 0-2.5125 0.6377-3.1601 1.418-2.8399 3.4219-18.823 11.75-37.568 19.576-5.5 2.2963-12.295 5.2617-15.1 6.5899-2.8048 1.3281-5.3663 2.416-5.6914 2.416s-4.5553 1.8785-9.4004 4.1758c-4.8451 2.2974-11.959 5.1802-15.809 6.4062-7.1747 2.2847-23.784 8.2013-28.814 10.264-1.5483 0.6348-3.1692 1.1543-3.6015 1.1543-0.4322 0-2.9023 1.125-5.4883 2.5s-5.3456 2.5-6.1328 2.5c-0.7871 0-4.1343 1.3092-7.4395 2.9102-3.3051 1.6011-7.9264 3.227-10.268 3.6132-2.3411 0.3861-4.7059 1.0539-5.2559 1.4825-0.55 0.4287-3.925 1.5625-7.5 2.5214-3.575 0.959-7.4 2.2722-8.5 2.9161s-4.025 1.7279-6.5 2.4101c-2.475 0.6821-8.775 2.7542-14 4.6055s-11.525 3.9544-14 4.6719-5.625 1.8781-7 2.58c-1.375 0.702-3.2739 1.2832-4.2207 1.2832-0.9468 0.0034-4.2655 1.1307-7.375 2.5059-3.1094 1.3751-9.0951 3.3347-13.301 4.3555-4.2058 1.0209-9.078 2.596-10.826 3.5-1.7482 0.9041-3.9661 1.6445-4.9296 1.6445-0.9636 0-5.5976 1.3071-10.299 2.9043-4.7012 1.5972-9.8988 3.1865-11.549 3.5332-1.65 0.3468-4.35 1.24-6 1.9844-4.286 1.9339-9.8232 3.582-12.07 3.582-1.0609 0.0021-3.2797 0.8236-4.9297 1.8262-1.65 1.0025-6.15 2.647-10 3.6543-3.85 1.0074-7.4267 2.2107-7.9492 2.6738-0.5225 0.463-1.6634 0.8418-2.5352 0.8418s-4.9451 1.1543-9.0508 2.5645c-4.1057 1.4103-9.9398 3.1417-12.965 3.8496-3.025 0.708-7.075 1.956-9 2.7734s-6.875 2.2767-11 3.2422c-7.0624 1.6529-12.293 3.4602-16.207 5.5996-0.9385 0.5131-3.6385 1.2275-6 1.5879s-4.7681 1.0262-5.3496 1.4805-3.5065 1.4746-6.5 2.2675c-2.9935 0.7928-6.7934 1.993-8.4434 2.666-1.65 0.6731-4.575 1.5815-6.5 2.0176-4.2323 0.9588-19.713 5.0333-30 7.8965-13.713 3.8167-21.444 5.9736-26.943 7.5156-2.9941 0.8395-5.8958 1.9798-6.4492 2.5332-0.5535 0.5535-2.9154 1.0059-5.248 1.0059-2.3325 0-4.4944 0.4099-4.8047 0.9121-0.3104 0.5021-2.476 1.2331-4.8106 1.6231-2.3347 0.39-6.2691 1.4893-8.7441 2.4433-2.475 0.9539-6.6331 2.0147-9.2402 2.3574-4.1785 0.5491-4.9082 0.3579-6.1543-1.6074-0.7774-1.2262-1.737-4.2356-2.1328-6.6894-0.3959-2.4539-1.1121-5.1539-1.5918-6-0.4797-0.8462-1.751-4.6891-2.8243-8.5391-2.2413-8.0395-4.512-14.628-6.6015-19.152-0.8004-1.7332-1.4551-3.7944-1.4551-4.5821s-0.2856-1.7191-0.6348-2.0683-0.8028-2.4955-1.0078-4.7715c-0.205-2.2759-1.2694-5.3986-2.3652-6.9375s-1.9922-3.5433-1.9922-4.4551c0-2.3182-2.841-11.036-5.6426-17.312-1.2961-2.9038-2.3574-6.0729-2.3574-7.041 0-2.634-2.8532-13.239-4.5293-16.832-0.8084-1.7332-1.4869-4.2082-1.5059-5.5-0.019-1.2919-1.3671-5.7227-2.996-9.8477-1.6291-4.125-2.9649-8.3178-2.9649-9.3164-2e-3 -0.9987-0.52-2.7791-1.1504-3.957-2.1072-3.9374-11.101-30.181-11.559-33.727-0.2483-1.925-1.277-5.75-2.2871-8.5-1.01-2.75-2.3646-7.025-3.0098-9.5-1.1299-4.3342-1.7674-6.0355-5.3535-14.285-0.9047-2.0812-1.6445-4.9072-1.6445-6.2812 0-1.3741-0.6627-4.0847-1.4727-6.0234-1.5916-3.8091-0.6826-6.7397 2.4239-7.8204 0.8523-0.2965 5.1488-2.5834 9.5488-5.082 4.4-2.4987 9.575-5.2654 11.5-6.1465 4.341-1.987 17.973-8.727 24-11.867 8.8839-4.6285 27.744-13.494 28.707-13.494 0.5405 0 1.7975-0.9 2.793-2s2.2153-2 2.7109-2c0.8502 0 9.929-4.3186 14.289-6.7969 1.1-0.6253 5.15-2.5495 9-4.2754 3.85-1.7258 14.65-6.8605 24-11.41 16.647-8.1002 33.533-15.948 42.5-19.752 2.475-1.0501 5.175-2.2485 6-2.6621s2.85-1.4274 4.5-2.2539c2.9763-1.4908 7.6947-3.8708 12.5-6.3047 6.3942-3.2386 20.466-9.8399 30-14.074 15.305-6.7971 24.641-11.164 31.5-14.73 8.085-4.2045 15.921-7.7402 17.15-7.7402 0.7531 0 5.7523-2.2284 11.109-4.9512 5.3571-2.7227 13.565-6.7316 18.24-8.9101s13.225-6.2533 19-9.0547c5.775-2.8015 10.891-5.0899 11.369-5.0899 0.4784 0.0027 5.0613-2.0191 10.184-4.4941 5.1224-2.475 9.9633-4.5 10.758-4.5 0.7944 0 1.9825-0.6483 2.6407-1.4414 1.1412-1.3751 15.005-8.5586 16.518-8.5586 0.3974 0 2.0348-0.9342 3.6386-2.0762s6.3982-3.1924 10.654-4.5566 9.2396-3.1698 11.074-4.0117 6.3176-1.9526 9.9629-2.4688c3.9608-0.5609 7.447-1.6864 8.6641-2.7949 2.252-2.0512 14.338-7.8737 19.037-9.1719 1.65-0.4558 5.025-1.3355 7.5-1.9551 2.475-0.6195 5.85-1.5805 7.5-2.1347 1.65-0.5541 4.8-1.4455 7-1.9805 5.2852-1.2853 8.4913-4.3936 8.5312-8.2734 0.0426-4.121 1.3883-5.5541 8.4688-9.0137 8.2739-4.0426 11.5-6.4009 11.5-8.4082 0-1.8867-4.8108-7.5905-7.0234-8.3281-1.1038-0.3679-0.9297-1.0708 0.8105-3.2832 1.2173-1.5475 2.2188-4.2144 2.2188-5.9278 0.0049-2.4103 0.6836-3.5002 3-4.8183 2.9842-1.6981 3.8741-4.5165 2.0136-6.377-1.574-1.574 0.6289-7.7089 3.8887-10.832l2.9199-2.7969-0.5176-9.1465c-0.5502-9.7372-0.0773-11.67 4.3125-17.644 2.2952-3.1237 2.5194-4.1835 2.0821-9.8496-0.6416-8.3135-4.718-14.498-9.8457-14.94-1.8475-0.1592-8.0844-0.9895-13.859-1.8437-5.775-0.8541-14.084-1.9591-18.467-2.4551-4.3822-0.496-9.4605-1.3926-11.283-1.9941-1.8227-0.6016-6.0083-1.2333-9.3027-1.4024s-6.5431-0.7429-7.2188-1.2754c-1.2689-1.0002-14.122-2.6445-18.978-2.4277-5.3033 0.2368-6.2844 0.1988-10.629-0.4219-4.8846-0.6977-7.7113 0.0109-23.121 5.7969-5.775 2.1683-11.857 4.2916-13.516 4.7187-1.6585 0.4272-4.5835 1.4879-6.5 2.3575-1.9165 0.8695-7.7594 3.2447-12.984 5.2773-12.393 4.8211-18 7.4481-18 8.4356 0 0.4397-1.4971 1.0807-3.3262 1.4238-1.8292 0.3432-7.6795 2.8683-13.002 5.6113-5.3223 2.7431-10.515 4.9883-11.539 4.9883s-2.9364 0.8316-4.248 1.8477c-1.3117 1.0161-3.7348 2.1681-5.3848 2.5605-1.65 0.3923-4.5815 1.7467-6.5137 3.0098s-4.4776 2.6037-5.6582 2.9785c-1.1806 0.3747-2.6924 1.3389-3.3593 2.1426-0.6671 0.8037-2.4838 1.4609-4.0352 1.4609-1.7617 0-3.3917 0.8154-4.3418 2.1719-0.8368 1.1947-2.5497 2.2934-3.8066 2.4433-9.3479 1.1145-15.785 3.4318-15.785 5.6797 0 1.8742-3.8136 3.8404-8.0293 4.1406-2.4974 0.1779-5.0943 1.3448-7.6094 3.418-2.1678 1.7869-4.9689 3.1465-6.4824 3.1465-1.4658 0-2.9034 0.6221-3.1953 1.3828-0.785 2.0456-11.024 7.6172-13.998 7.6172-1.4144 0-3.1602 0.8106-3.8789 1.8008s-2.8816 2.4136-4.8066 3.164-4.2098 1.9649-5.0781 2.6993-2.1282 1.3359-2.7989 1.3359c-0.6708 0-3.0826 0.9-5.3593 2-2.2768 1.1-5.5191 2-7.2051 2-2.1101 0-3.9474 0.9349-5.8965 3-1.8838 1.9959-3.8045 3-5.7383 3-1.8237 0-3.3725 0.7452-4.1562 2-0.6869 1.1-1.805 2-2.4844 2s-2.709 0.8981-4.5098 1.9961c-1.8008 1.0979-4.7105 2-6.4668 2-1.9585 0.0023-3.6986 0.7164-4.5 1.8457-1.7607 2.4811-5.1109 4.1582-8.3066 4.1582-1.4478 0-4.0656 1.0709-5.8164 2.3809-4.6678 3.4928-9.6724 5.8369-11.207 5.248-0.739-0.2836-3.0099 0.809-5.0469 2.4277-2.037 1.6188-4.255 2.9434-4.9277 2.9434-0.6726 0-2.7533 1.0384-4.625 2.3086-7.8323 5.3151-18.392 10.119-21.529 9.7949-1.1836-0.1222-2.7586 0.6092-3.5 1.625-1.9437 2.6634-8.1834 6.0614-12.568 6.8438-2.0783 0.3709-4.6793 1.4684-5.7793 2.4394-3.0313 2.6758-10.538 5.9883-13.572 5.9883-1.7735 0-3.2589 0.8562-4.3359 2.5-1.1919 1.819-2.5247 2.5-4.8926 2.5-3.4729 0-7.6722 2.3367-7.7402 4.3066-0.0393 1.1444-8.5612 5.6934-10.666 5.6934-0.5595 0-2.7167 1.35-4.793 3s-4.8112 3-6.0781 3-2.582 0.45-2.9219 1-1.8286 1.0076-3.3086 1.0176c-1.5493 0.0099-3.691 1.0706-5.0469 2.5-1.2952 1.3655-2.8335 2.4824-3.4199 2.4824-0.5865 0-1.7782 0.6168-2.6465 1.3711-0.8683 0.7544-4.0531 2.1741-7.0781 3.1543s-6.85 2.7929-8.5 4.0293c-3.2665 2.4478-14.579 7.4453-16.854 7.4453-0.7775 0-1.6526-0.7875-1.9453-1.75-0.2928-0.9625-1.5133-4.225-2.7129-7.25-2.0598-5.1945-2.8229-7.8387-4.834-16.75-0.4655-2.0625-1.7701-5.775-2.8984-8.25-1.1282-2.475-2.5088-6.3-3.0684-8.5-2.4231-9.5274-6.4273-23.14-7.2813-24.754-0.5103-0.9645-1.7843-5.2395-2.832-9.5-2.4407-9.9254-6.9324-24.842-8.7012-28.898-0.7556-1.7332-1.373-3.7704-1.373-4.5274s-0.6138-2.2627-1.3633-3.3476-1.617-3.3227-1.9277-4.9727c-1.0119-5.3719-2.9087-11.88-5.2461-18-1.2604-3.3-3.1985-8.925-4.3086-12.5-1.1102-3.575-3.2193-9.65-4.6855-13.5-1.4663-3.85-3.7577-10.469-5.0918-14.707-1.3342-4.2383-2.8638-7.977-3.4004-8.3086-0.5366-0.3317-0.9825-1.588-0.9825-2.793-0.0033-1.2051-0.7222-3.5414-1.5976-5.1914s-2.3993-5.475-3.3867-8.5c-1.5826-4.8488-3.4037-9.8821-5.9707-16.5-0.4267-1.1-1.7613-5.15-2.9649-9s-2.7905-8.35-3.5254-10c-0.735-1.65-2.2304-5.475-3.3242-8.5-1.0939-3.025-3.3926-9.1391-5.1074-13.586s-3.1172-8.5536-3.1172-9.127c0-0.5733-0.675-1.6024-1.5-2.2871s-1.5-2.0966-1.5-3.1367-0.3844-2.6719-0.8535-3.627c-1.7689-3.6016-4.0934-9.2701-11.17-27.236-4.0077-10.175-7.6126-19.175-8.0118-20-2.9281-6.0507-4.9648-10.882-4.9648-11.779 0-0.5827-0.7692-2.3996-1.709-4.0371-1.4841-2.586-1.5223-3.2-0.291-4.6836 1.7933-2.1608 5.2066-3.547 11.279-4.5781 2.6287-0.4464 8.0287-2.3455 12-4.2207 3.9713-1.8751 10.146-4.1975 13.721-5.1621s6.95-2.0948 7.5-2.5098c0.55-0.4151 2.2881-1.0629 3.8613-1.4395 1.5731-0.3765 4.7231-1.4997 7-2.496 7.6322-3.3401 9.7228-4.0931 11.436-4.125 0.9366-0.0172 3.9531-1.1395 6.7031-2.4922 2.75-1.3528 5.5068-2.4588 6.127-2.4688 0.6201-5e-3 1.6883-0.6828 2.373-1.5078s2.4798-1.5 3.9883-1.5 3.8866-0.9 5.2851-2c1.3984-1.1 2.9825-2 3.5215-2 0.9003 0 7.8757-2.9668 19.205-8.1699 2.475-1.1366 5.4-2.4246 6.5-2.8613 1.1-0.4368 4.9617-2.1849 8.5801-3.8829 3.6185-1.698 6.9457-3.0859 7.3945-3.0859 0.733 0 5.1958-2.0259 21.025-9.541 2.75-1.3056 7.7-3.4759 11-4.8242 6.4016-2.6155 22.272-9.9381 37-17.072 24.972-12.096 36.576-17.562 37.279-17.562 0.671 0 7.3939-3.3167 13.758-6.7871 1.0799-0.5889 5.5629-2.7548 9.9629-4.8125s8.985-4.6181 10.19-5.6895c1.2046-1.0713 5.4796-3.0541 9.5-4.4062s8.0203-3.0979 8.8886-3.8809c0.8683-0.7829 1.9507-1.4238 2.4043-1.4238 1.1385 0 9.9845-4.4571 16.018-8.0703 2.75-1.6469 5.675-3.241 6.5-3.543 11.529-4.221 21.14-8.3466 23-9.873 2.4313-1.995 7.9452-3.6421 16.81-5.0215 4.5712-0.7113 9.0712-1.975 10-2.8086 0.9288-0.8337 3.7145-2.2965 6.1895-3.25s5.625-2.7664 7-4.0293c3.9326-3.6122 13.738-8.1767 16.451-7.6582 1.8895 0.3612 4.4555-1.2745 11.961-7.6211 5.2551-4.4438 10.798-8.372 12.32-8.7305 1.5218-0.3584 4.1309-1.4696 5.7969-2.4687 5.0458-3.026 17.338-8.9258 18.596-8.9258 0.6489 0 6.6235-2.666 13.277-5.9238 6.6539-3.2578 14.512-6.7012 17.463-7.6524 4.3404-1.3991 5.6175-2.3359 6.6914-4.9062 0.7301-1.7473 2.03-3.7596 2.8868-4.4707 0.8568-0.711 1.5566-2.0783 1.5566-3.0391s1.8-4.0084 4-6.7715c4.2382-5.323 4.8212-8.1757 2.5-12.236-1.8562-3.2467-1.8816-7.439-0.0547-8.9551 0.7949-0.6597 2.1717-3.3884 3.0606-6.0644 1.3202-3.9749 1.4241-5.9124 0.5605-10.584l-1.0586-5.7188 2.7461-3.5898c2.3318-3.0477 2.7713-4.6434 2.918-10.588 0.2051-8.3104 1.9207-13.418 5.9043-17.588 2.7493-2.8772 2.9099-3.5052 2.7031-10.463-0.4339-14.596-4.49-17.208-33.029-21.268-3.1625-0.4499-7.4893-1.5744-9.6152-2.498-2.126-0.9235-7.976-2.182-13-2.7988-5.0241-0.6169-10.485-1.7041-12.135-2.416s-7.9424-1.7877-13.982-2.3887c-6.0401-0.601-12.805-1.7876-15.033-2.6387l-4.0508-1.5488zm-688.53 316.11c-6.095 0-7.195 0.3113-10.123 2.8652-1.8066 1.5758-4.2991 3.182-5.5372 3.5684-1.238 0.3865-2.7164 1.5721-3.2851 2.6348-0.5922 1.1065-2.0864 1.9316-3.4961 1.9316-1.3882 0-4.0987 1.4721-6.2148 3.375-2.0641 1.8561-5.327 3.7109-7.252 4.1211-4.843 1.0318-8.4597 3.0166-10.646 5.8457-1.8332 2.3716-14.442 9.6582-16.713 9.6582-0.6463 0-3.4176 1.9532-6.1582 4.3398-2.7405 2.3866-6.2992 4.9741-7.9082 5.75s-3.7977 2.9852-4.8633 4.9102c-2.4164 4.365-3.3428 4.9643-7.7109 4.9883-4.1246 0.0225-9.2084 2.8736-11.582 6.4961-2.0436 3.1189-1.5005 11.522 1.0664 16.486 0.9091 1.7581 2.0811 5.972 2.6035 9.3633 0.5224 3.3914 1.353 7.066 1.8457 8.166 0.4926 1.1 1.4195 6.275 2.0586 11.5 0.639 5.225 1.7695 11.3 2.5137 13.5 0.7441 2.2 1.883 6.7 2.5312 10 0.6483 3.3 2.2548 10.167 3.5703 15.262 1.3154 5.0944 2.3867 10.269 2.3867 11.5-0.0028 1.2306 0.6439 4.2633 1.4356 6.7383 1.4703 4.5962 3.383 12.28 6.5976 26.5 2.0514 9.0747 5.6277 21.148 7.0313 23.736 0.5178 0.9551 0.949 2.5301 0.959 3.5 0.0094 0.97 0.9212 5.1387 2.0273 9.2637 3.046 11.36 6.914 26.733 8.5547 34 0.8071 3.575 2.1048 7.8697 2.8828 9.543 0.7781 1.6734 2.1315 6.6234 3.0078 11 0.8763 4.3767 2.4455 10.207 3.4883 12.957 1.0429 2.75 2.1954 6.9496 2.5606 9.332 0.3651 2.3825 1.291 5.5325 2.0566 7 0.7657 1.4676 1.3984 3.9358 1.3984 5.4844 0.0034 1.5487 0.5345 3.7987 1.1797 5 0.6452 1.2014 2.1753 6.2336 3.4004 11.184 5.9585 24.075 7.5566 29.953 8.4336 31.01 0.5228 0.6299 1.6034 4.0359 2.4024 7.5683 2.8819 12.741 5.6903 23.455 6.5683 25.059 0.4925 0.8998 1.4227 4.4998 2.0664 8 0.6437 3.5003 1.5649 7.1332 2.0469 8.0742 1.0239 1.9988 4.6334 14.453 5.9141 20.408 0.4873 2.2659 1.8139 6.7639 2.9492 9.9942 1.1354 3.2302 2.7539 9.2141 3.5976 13.299 0.8438 4.0847 2.1558 8.5887 2.9141 10.008 1.8055 3.379 4.5332 12.404 4.5332 14.998 0 1.123 0.6122 3.7388 1.3613 5.8125 0.7491 2.0736 1.8963 5.7945 2.5489 8.2695 2.7175 10.306 5.9971 21.787 7.4257 26 0.8393 2.475 2.2452 7.425 3.125 11 0.8799 3.575 2.269 8.075 3.0879 10 0.819 1.925 2.1232 6.65 2.8965 10.5s2.2961 9.475 3.3848 12.5 2.7395 8.425 3.6679 12 2.3218 7.9771 3.0958 9.7832c0.7739 1.8062 1.4062 4.1749 1.4062 5.2637s0.4164 2.7617 0.9258 3.7168c1.3021 2.4412 7.0742 21.472 7.0742 23.324 0 0.8416 0.6613 2.403 1.4688 3.4707 0.8074 1.0676 1.483 3.2079 1.5 4.7559 0.0174 1.5481 0.907 4.9231 1.9765 7.5 1.0695 2.577 2.9024 8.7355 4.0742 13.686s2.773 10.688 3.5567 12.75c2.1359 5.6215 4.5679 12 5.4336 14.25 0.4231 1.1 2.9021 9.425 5.5097 18.5 2.6077 9.075 5.5234 18.75 6.4805 21.5s3.2181 10.175 5.0234 16.5c3.376 11.828 6.0245 19.376 8.5391 24.33 0.7902 1.5571 1.4375 3.7992 1.4375 4.9804 0 1.1813 1.0679 5.0813 2.373 8.668 4.13 11.35 9.627 28.804 9.627 30.568 0 0.9344 1.5103 6.2565 3.3574 11.826 1.847 5.5696 4.169 12.827 5.1582 16.127s2.177 6.4267 2.6406 6.9492c0.4638 0.5225 0.8477 1.8725 0.8477 3 0.0019 1.1275 1.297 5.2275 2.8789 9.1094 1.5819 3.8818 3.2019 8.9823 3.5996 11.336l0.7227 4.2793-5.4375-3.8359c-8.9838-6.339-16.153-11.944-18.172-14.205-1.0477-1.1734-2.3343-2.1328-2.8574-2.1328s-1.8365-1.1267-2.9199-2.5039c-1.0834-1.3773-4.0738-3.9402-6.6446-5.6953-4.1481-2.8319-16.244-12.841-23.174-19.174-1.375-1.2567-3.6885-3.014-5.1406-3.9063-1.4521-0.8922-5.3364-4.12-8.6328-7.1719s-6.3373-5.5488-6.7559-5.5488-1.7073-0.914-2.8652-2.0312c-1.1578-1.1174-3.5045-3.255-5.2149-4.75-1.7103-1.4952-5.3103-4.7736-8-7.2852-2.6896-2.5116-7.5906-6.5378-10.891-8.9473-3.3-2.4096-7.6379-5.9798-9.6387-7.9336-4.8384-4.7247-11.828-10.805-20.361-17.711-3.85-3.1156-7.9-6.6612-9-7.8789s-5.6-4.9114-10-8.209c-6.9917-5.24-14.267-11.342-23.66-19.846-1.4631-1.3245-2.9546-2.4082-3.3144-2.4082-0.8027 0-8.6796-6.5441-17.152-14.25-3.4772-3.1625-6.7131-5.75-7.1914-5.75-0.8837 0-9.8165-7.4187-16.182-13.44-1.925-1.8209-7.325-6.1474-12-9.6152s-12.55-9.5927-17.5-13.611c-8.1069-6.5814-11.669-9.386-20.121-15.834-1.4418-1.1-4.0294-3.2295-5.75-4.7324-1.7206-1.5028-5.0113-4.2028-7.3125-6-10.806-8.439-15.175-11.885-25.381-20.018-6.039-4.8125-11.259-8.75-11.6-8.75s-2.9192-1.9481-5.7285-4.3301c-2.8093-2.3819-8.7171-6.8481-13.129-9.9238-4.4118-3.0758-10.94-8.2151-14.506-11.42-6.4828-5.8261-12.362-10.326-13.49-10.326-0.75848 0-7.6924-5.5411-11.99-9.582-1.8025-1.6947-5.8492-4.7869-8.9922-6.8731-3.143-2.0862-7.18-5.0823-8.9727-6.6562-1.7926-1.574-5.3274-4.3299-7.8535-6.125-2.5261-1.7952-10.066-7.5387-16.756-12.764s-16.333-12.65-21.43-16.5c-9.8067-7.4083-16.552-12.814-22.791-18.266-2.0912-1.8275-4.7913-3.7636-6-4.3008-2.5049-1.1134-6.3854-3.978-16.502-12.184-3.899-3.1625-7.5632-5.75-8.1426-5.75s-1.0527-0.4334-1.0527-0.9629-2.5875-2.7703-5.75-4.9805-8.3383-6.0518-11.502-8.5371c-3.1636-2.4854-6.028-4.5195-6.3652-4.5195s-1.7989-1.166-3.248-2.5918c-3.1614-3.1106-18.801-15.408-19.596-15.408-0.47756 0-17.877-13.641-30.986-24.293-2.171-1.7641-5.321-4.0562-7-5.0937-1.679-1.0376-3.6407-2.7251-4.3594-3.75-0.71869-1.025-1.789-1.8633-2.3789-1.8633-0.58993 0-2.9484-1.9125-5.2402-4.25s-5.8659-5.375-7.9434-6.75-4.308-3.0987-4.9551-3.8301c-3.538-3.9989-8.4251-8.6362-12.533-11.891-2.553-2.0224-5.1042-4.2098-5.668-4.8613s-3.9697-3.5991-7.5684-6.5508c-9.9698-8.1773-24.993-22.205-36.262-33.857-18.065-18.679-34.055-34.428-38.592-38.01-2.4378-1.925-6.0339-5.2809-7.9922-7.457-1.9582-2.1761-5.6247-6.0011-8.1465-8.5-2.5217-2.4989-4.8845-5.751-5.252-7.2285-0.46374-1.8647-1.712-3.0649-4.082-3.9219-1.8779-0.6791-3.8458-2.1711-4.373-3.3145-1.0682-2.3166-15.322-8.2423-17.133-7.123-0.59036 0.3649-1.0742 2.8891-1.0742 5.6094 0 4.6562 0.38073 5.3819 6.5 12.398 3.575 4.0991 6.5 8.2727 6.5 9.2734s0.70046 2.8186 1.5566 4.041c2.2638 3.232 0.55191 2.7219-3.2598-0.9726-1.8763-1.8185-3.2969-4.2045-3.2969-5.5332 0-1.2843-0.61709-2.5701-1.3711-2.8594-1.3033-0.5002-7.1948 2.7471-10.809 5.957-1.5069 1.3385-1.8293 1.2658-3.1074-0.6894-0.78395-1.1993-1.7248-3.13-2.0918-4.291-0.36705-1.1609-2.4601-3.7685-4.6504-5.7949-2.1903-2.0266-4.644-5.2686-5.4531-7.2051s-4.6718-6.6407-8.584-10.453c-6.5332-6.3668-7.4008-6.8973-10.637-6.496-2.0053 0.2487-4.1234 1.2972-4.918 2.4316-0.76778 1.0961-2.3865 2.1354-3.5957 2.3105-1.2092 0.1751-3.3418 1.9996-4.7402 4.0547-2.8729 4.222-9.8595 8.3476-11.447 6.7598-1.5138-1.5138-3.8272-1.1616-6.5957 1.0039-1.375 1.0755-3.4716 1.9665-4.6602 1.9785-1.1886 0.0122-3.2972 1.3715-4.6855 3.0215-1.3884 1.65-3.4282 3-4.5312 3-2.2306 0-3.1494 1.0894-4.623 5.4785-1.2252 3.6497-5.6026 5.5637-8.5352 3.7324-1.0658-0.6656-2.6964-1.2109-3.623-1.2109-2.2915 0-5.3418 2.9099-5.3418 5.0957 0 2.1251-1.6008 3.359-2.4902 1.9199-1.0253-1.659-4.0691-1.16-6.0098 0.9844-0.99549 1.1-2.7643 2-3.9316 2-2.5298 0-6.5547 2.6254-6.6016 4.3066-0.08213 2.9458-3.8118 5.6934-7.7285 5.6934-3.0176 0-4.6794 0.7043-7.0898 3.0078-2.9408 2.8104-3.1484 3.4679-3.1484 9.9629 0 7.3934-0.32802 6.5846 15.207 37.529 1.6567 3.3 4.2688 8.7 5.8047 12s4.3829 9.375 6.3262 13.5 4.7259 10.875 6.1836 15c1.4577 4.125 3.9121 9.975 5.4531 13s3.3794 7.525 4.0859 10c0.70657 2.475 1.8222 5.175 2.4805 6 0.65829 0.825 1.4441 2.625 1.7461 4 1.0729 4.8845 3.3803 10.017 5.5312 12.307 1.1999 1.2772 2.1816 3.3324 2.1816 4.5664s2.438 8.235 5.418 15.559c2.98 7.3235 5.8661 14.834 6.4141 16.691 0.54799 1.857 2.61 7.1856 4.582 11.84 1.972 4.6542 3.5859 9.2386 3.5859 10.189 0 0.9507 0.45 2.0078 1 2.3477s1 1.6296 1 2.8652c0 1.2357 1.0707 3.6976 2.3789 5.4707 1.3082 1.7732 4.2818 9.1722 6.6074 16.443s5.2556 15.921 6.5117 19.221 3.5197 9.375 5.0293 13.5 3.3232 8.85 4.0312 10.5c0.70804 1.65 1.5963 4.2422 1.9746 5.7598 0.37834 1.5177 1.0891 3.0063 1.5781 3.3086 0.48907 0.3022 0.88867 1.3335 0.88867 2.291 0 0.9576 0.54459 2.2848 1.209 2.9492 1.127 1.127 7.2629 18.011 10.246 28.191 1.2268 4.1867 3.6019 10.15 5.668 14.236 0.48286 0.9551 0.87695 2.706 0.87695 3.8907s0.96197 4.2283 2.1367 6.7636c1.1748 2.5352 2.4566 5.5094 2.8496 6.6094s1.2726 3.575 1.9551 5.5c4.4858 12.652 7.0649 19.309 7.875 20.328 0.51284 0.6448 1.185 2.5219 1.4941 4.1719 0.982 5.2416 3.2326 12.882 4.8594 16.5 2.3006 5.1161 4.9019 12.729 6.4941 19 0.76802 3.025 1.834 6.2813 2.3672 7.2363 0.5332 0.9551 0.96875 2.2378 0.96875 2.8496s0.65568 2.5305 1.457 4.2637c0.80134 1.7331 3.671 9.9004 6.377 18.15 2.7059 8.25 5.3808 16.125 5.9453 17.5 0.56448 1.375 2.2138 6.55 3.6641 11.5s3.1088 10.35 3.6856 12 1.8921 6.1504 2.9238 10c1.0318 3.8495 2.2996 7.8995 2.8184 9 0.51881 1.1004 2.1826 6.05 3.6953 11 1.5127 4.95 3.7597 12.15 4.9941 16 1.2344 3.85 2.5482 8.575 2.9199 10.5s1.953 7.55 3.5137 12.5c1.5607 4.95 4.052 13.05 5.5352 18 1.4832 4.95 3.321 10.696 4.084 12.77 0.76303 2.0737 1.3896 4.5487 1.3926 5.5 0.00339 0.9514 0.63648 2.9367 1.4062 4.4121 0.76977 1.4755 1.7114 4.1755 2.0918 6 0.38042 1.8246 1.7164 6.4684 2.9707 10.318 1.2543 3.85 3.7188 11.725 5.4766 17.5s3.6758 11.85 4.2617 13.5 2.6057 7.725 4.4883 13.5c4.8848 14.984 7.9759 24.001 9.4277 27.5 2.3075 5.5614 3.2087 8.3494 3.8809 12 0.40508 2.2 1.7318 6.925 2.9473 10.5 1.2155 3.575 2.6658 7.85 3.2227 9.5 0.55681 1.65 1.3893 4.8224 1.8496 7.0508s1.7256 6.7284 2.8125 10 2.7463 8.6492 3.6875 11.949c3.1143 10.919 5.6868 18.958 7.0879 22.15 0.76057 1.7332 1.3828 3.8769 1.3828 4.7637s0.42222 2.3945 0.9375 3.3496c0.51528 0.955 1.9139 5.5613 3.1094 10.236 1.1954 4.675 5.0478 17.275 8.5605 28 8.8019 26.874 9.5907 29.152 11.076 32 0.71728 1.375 1.3076 3.2613 1.3106 4.1914 0.00339 0.93 0.40546 1.938 0.89453 2.2402 0.48907 0.3023 1.1994 1.784 1.5781 3.293 0.37875 1.5091 1.7117 5.0011 2.9609 7.7598 1.2492 2.7586 3.0532 7.7156 4.0098 11.016s2.3739 7.1944 3.1504 8.6543 1.4121 3.2813 1.4121 4.0469 2.3625 4.8939 5.25 9.1738 6.15 9.2503 7.25 11.047c6.9347 11.326 19.728 25.169 26.02 28.154 1.9631 0.9316 4.2914 3.0926 5.1758 4.8027 0.88434 1.7101 3.4104 5.4964 5.6133 8.4141 2.8418 3.764 4.5836 5.2179 5.9961 5.0058 1.6822-0.2527 2.4344-1.0501 4.3926-4.6621 0.10853-0.2002 1.4066 0.5873 2.8848 1.75 3.5735 2.8109 5.5363 2.6647 8.5781-0.6367 4.2178-4.5779 5.8379-7.5437 5.8613-10.723l0.02344-3.0273 2.0215 2.5c1.1126 1.375 2.4376 3.5005 2.9434 4.7227 1.3771 3.3281 5.5835 4.0074 8.4043 1.3574 2.0356-1.9124 2.6254-2.0189 5.0547-0.9121 2.9105 1.3262 3.0564 1.2369 6.1543-3.8301l1.123-1.8379 1.9551 1.75c2.7484 2.4591 11.244 2.3288 16.299-0.25 2.814-1.4356 5.8928-2 10.912-2h6.9941l3.2148-4c2.1915-2.727 4.0029-4 5.6934-4 2.6395 0 11.17-6.3301 11.207-8.3164 0.01223-0.6507 0.90298-2.3086 1.9785-3.6836 3.224-4.1217 2.782-14.765-0.89062-21.457-1.5896-2.8964-3.2204-6.7733-3.625-8.6153-0.40458-1.8421-1.5594-4.4919-2.5664-5.8886s-3.0063-6.0861-4.4434-10.422-3.4831-9.5033-4.5449-11.484c-1.0618-1.9811-1.9297-4.4027-1.9297-5.3808s-0.41791-2.5606-0.92969-3.5157c-0.51179-0.955-1.9052-4.4363-3.0957-7.7363-1.1905-3.3-3.023-7.8-4.0723-10-1.0493-2.2-1.9063-5.2113-1.9043-6.6914 0.00153-1.48-0.39629-2.9356-0.88282-3.2363-0.48654-0.3007-1.2014-2.4643-1.5879-4.8086s-1.5576-5.6137-2.6035-7.2637-2.0648-3.45-2.2637-4c-2.5875-7.1542-4.0967-12.016-5.2774-17-0.78168-3.3-2.0846-8.025-2.8945-10.5-0.80995-2.475-3.2965-10.35-5.5273-17.5-6.683-21.419-7.2058-22.96-8.1016-23.949-0.47317-0.5225-0.86224-1.8725-0.86524-3-0.00339-1.1275-0.67839-3.3387-1.5-4.9141s-1.497-3.6004-1.5-4.5c-0.00339-0.8996-0.71458-2.9867-1.5801-4.6367-1.9028-3.6276-7.4141-19.955-7.4141-21.965 0-1.5987-6.5445-22.343-8.5293-27.035-0.69793-1.65-2.9529-8.175-5.0098-14.5s-4.351-12.917-5.0996-14.65c-0.74857-1.7332-1.3613-4.0093-1.3613-5.0586s-0.66124-2.7819-1.4688-3.8496c-0.8075-1.0676-1.4825-2.8447-1.5-3.9492-0.01749-1.1045-1.341-5.7105-2.9414-10.236-1.6004-4.5259-3.2264-10.148-3.6133-12.492-0.38685-2.3447-1.31-5.3887-2.0508-6.7637-0.74075-1.375-2.0837-5.9895-2.9863-10.254-0.90259-4.2644-2.0466-8.0031-2.541-8.3086-0.49436-0.3056-0.89558-1.3161-0.89258-2.2461 0.00503-1.6453-3.352-12.91-8.998-30.191-1.5274-4.675-3.5506-11.425-4.4961-15-0.94549-3.575-2.292-8.075-2.9902-10-1.5247-4.2034-7.2845-23.506-9.1016-30.5-1.5048-5.7918-3.4892-11.568-8.125-23.654-1.8259-4.7604-3.7214-10.61-4.2129-13-0.81856-3.9796-3.509-12.432-8.0684-25.346-0.97092-2.75-3.9111-11.75-6.5332-20-2.6221-8.25-5.1004-15.45-5.5078-16-0.40747-0.55-1.0759-2.5598-1.4844-4.4668-0.76015-3.549-1.1978-4.68-3.4922-9.0254-0.7239-1.371-1.6558-3.846-2.0703-5.5-0.41445-1.654-2.3968-7.5078-4.4062-13.008-2.0095-5.5-4.7851-13.375-6.168-17.5s-3.1535-8.7731-3.9336-10.33c-0.78012-1.5571-1.418-3.6083-1.418-4.5586s-0.66124-2.6022-1.4688-3.6699c-0.8075-1.0676-1.4825-2.6675-1.5-3.5566-0.03282-1.6683-2.9013-9.3198-6.168-16.449-1.0246-2.2362-1.8652-4.7112-1.8672-5.5-0.00199-0.7889-1.3948-5.0355-3.0957-9.4355-1.7009-4.4-4.4592-11.6-6.1289-16s-3.3753-8.45-3.7891-9c-0.41379-0.55-1.0741-2.5092-1.4688-4.3535s-2.0214-5.981-3.6152-9.1934c-1.5938-3.2124-2.8985-6.2032-2.8965-6.6465 0.00158-0.4434-1.0786-3.5066-2.4004-6.8066-5.3673-13.4-8.699-22.735-8.2695-23.164 0.64481-0.6448 13.668 12.278 13.668 13.562 0 0.5837 1.9125 2.0287 4.25 3.211 2.3375 1.1822 6.95 4.2397 10.25 6.7949 3.3 2.5551 8.25 6.0714 11 7.8145 2.75 1.7429 6.575 4.8086 8.5 6.8124 1.925 2.004 5.075 4.4635 7 5.4649 1.925 1.0015 4.8221 3.2117 6.4375 4.9121s3.513 3.0918 4.2168 3.0918c0.70376 0 2.7567 1.4625 4.5625 3.25 1.8058 1.7875 5.3082 4.8019 7.7832 6.6973 2.475 1.8953 6.5501 5.2703 9.0547 7.5 2.5046 2.2296 5.6012 4.7277 6.8828 5.5527s4.8585 3.5599 7.9473 6.0762c3.0888 2.5164 8.0963 6.201 11.129 8.1894s8.2076 6.0371 11.5 8.9961c3.2924 2.9591 6.6613 5.6826 7.4863 6.0528 2.85 1.279 5.5036 3.2078 12.307 8.9453 3.756 3.1677 8.1544 6.445 9.7754 7.2832 3.073 1.5891 19.023 13.262 19.947 14.598 0.29151 0.4214 3.8915 3.23 8 6.2422 4.1085 3.0123 8.1457 6.1133 8.9707 6.8906 4.152 3.9118 16.958 13.727 17.91 13.727 0.5993 0 1.0898 0.369 1.0898 0.8203s2.8125 3.104 6.25 5.8945 9.1226 7.4191 12.635 10.285c3.5122 2.8662 7.652 5.744 9.1992 6.3945 1.5472 0.6506 7.2246 4.891 12.615 9.4239 14.032 11.799 18.201 15.058 23.801 18.6 1.65 1.0437 3.359 2.5018 3.7988 3.2402s1.2668 1.3418 1.8359 1.3418c0.90763 0 10.142 6.7797 14.982 11 0.94629 0.825 3.8297 3.075 6.4082 5 2.5785 1.925 7.9911 6.2 12.027 9.5 4.0363 3.3 9.6663 7.8 12.512 10 2.8454 2.2 7.5308 6.025 10.412 8.5 2.8814 2.475 6.6744 5.625 8.4277 7s6.2034 5.0029 9.8906 8.0605c3.6873 3.0575 8.2801 6.6352 10.205 7.9512 1.925 1.3159 3.725 2.7012 4 3.0781s3.501 3.0973 7.1699 6.0469c3.6689 2.9496 9.7778 8.0633 13.574 11.363 3.7964 3.3 8.8619 7.575 11.258 9.5 2.3959 1.925 6.6637 5.525 9.4824 8 2.8187 2.475 7.9368 6.75 11.375 9.5 3.4382 2.75 11.644 9.725 18.234 15.5 6.5905 5.775 15.386 13.2 19.545 16.5s7.9898 6.7875 8.5117 7.75 1.4181 1.75 1.9922 1.75 4.9402 3.5286 9.7012 7.8398c4.761 4.3113 10.681 9.2158 13.156 10.9 2.475 1.6845 8.5941 6.5954 13.598 10.912 20.954 18.078 27.525 23.588 32.574 27.316 13.245 9.7816 18.235 13.723 20.607 16.281 1.4031 1.5125 2.9382 2.75 3.4102 2.75 0.9318 0 17.52 13.011 22.957 18.006 1.8439 1.6939 7.6285 6.3158 12.854 10.271s12.678 9.7478 16.564 12.871c3.8859 3.1234 8.8124 6.6595 10.945 7.8575s5.7025 3.6202 7.9336 5.3828c2.2311 1.7627 6.0816 4.5074 8.5566 6.0996 2.475 1.5921 6.525 4.7725 9 7.0683 2.475 2.2957 8.325 6.7786 13 9.961s10.3 7.2296 12.5 8.9941c2.2 1.7646 7.15 5.1343 11 7.4883 3.85 2.3541 7.5879 5.1175 8.3066 6.1406s1.8019 1.8594 2.4082 1.8594c0.6064 0 3.6134 1.8963 6.6817 4.2129 10.877 8.2122 32.551 22.613 44.213 29.377 1.0325 0.5988 2.6665 1.7899 3.6328 2.6465 1.7616 1.5617 5.4367 3.5843 14.758 8.1289 2.75 1.3408 9.95 5.249 16 8.6836l11 6.2442 7.3867-0.084c4.0628-0.046 7.8665-0.5618 8.4512-1.1465 0.5846-0.5846 1.6084-1.0625 2.2754-1.0625s3.6043-1.575 6.5273-3.5 6.5286-3.5 8.0137-3.5c4.1809 0 7.1848-4.4426 6.4844-9.5918-0.499-3.6688-0.2555-4.3153 2.3613-6.25 1.6053-1.1868 3.5778-2.1582 4.3828-2.1582 1.7294 0 7.2299-5.2762 8.0938-7.7637 0.3316-0.9548 2.6563-3.5363 5.166-5.7363 2.5098-2.2 5.9801-5.5454 7.7109-7.4355 9.486-10.359 10.138-10.866 14.953-11.588 3.9032-0.5853 5.3975-1.4697 8.5704-5.0743 3.5-3.9763 3.9046-5.0367 4.5234-11.865 0.6405-7.0681 0.5006-7.8573-2.4414-13.768-1.7165-3.4483-5.5606-9.355-8.541-13.125-2.9805-3.77-5.418-7.6733-5.418-8.6757 0-1.0026-1.1446-2.7243-2.543-3.8243-2.5128-1.9765-10.457-16.685-10.457-19.361 0-0.7606-0.3688-1.8115-0.8184-2.334s-1.4077-3.4242-2.1289-6.4492c-0.7213-3.025-1.6512-5.95-2.0683-6.5-1.5625-2.0602-10.536-26.18-11.719-31.5-0.3058-1.375-1.1671-3.3878-1.9121-4.4727s-1.3535-2.7177-1.3535-3.6289c0-0.9111-1.1215-4.1073-2.4922-7.1015-1.3708-2.9942-2.9235-7.7103-3.4492-10.482-0.5257-2.772-2.0269-7.4651-3.3379-10.428-2.5609-5.7872-6.9447-18.687-8.7324-25.699-0.6047-2.3719-1.3768-5.0377-1.7168-5.9238-0.4629-1.2063-0.1953-1.4477 1.0683-0.9629 1.3811 0.5301 1.6453 0.0944 1.4551-2.4024-0.1278-1.6775-0.5839-3.2676-1.0137-3.5332-0.4297-0.2657-0.7812-1.3276-0.7812-2.3593 0-1.0318-0.5197-3.1431-1.1543-4.6914-0.6345-1.5483-1.2645-3.2645-1.4004-3.8145-0.6506-2.6338-2.4665-6.5-3.0527-6.5-0.3609 0-0.4048 1.8727-0.0977 4.1621l0.5586 4.1641-1.9199-2.9141c-1.056-1.6019-1.9277-3.5993-1.9277-4.4394-0.0036-0.8401-0.6248-2.4151-1.3809-3.5-0.756-1.0849-1.7072-3.9977-2.1133-6.4727s-1.098-4.95-1.539-5.5-1.7998-3.925-3.0196-7.5-2.5578-6.95-2.9726-7.5c-0.4149-0.55-1.0701-2.9094-1.4551-5.2441-0.3851-2.3346-1.1112-4.5002-1.6133-4.8106-0.5022-0.3103-0.9121-2.1926-0.9121-4.1836 0-4.0853-0.9416-7.4679-5.1016-18.33-1.5942-4.1627-2.9127-8.2127-2.9296-9-0.0175-0.7873-0.6926-2.3054-1.5-3.373-0.8075-1.0677-1.4688-2.9377-1.4688-4.1563s-1.2984-5.1088-2.8848-8.6445c-1.5863-3.5356-3.1846-8.4156-3.5527-10.844s-0.9084-5.6652-1.2012-7.1934c-0.3806-1.9873-0.1526-2.6992 0.8028-2.5 2.0196 0.4212 1.2062-4.2032-2.9024-16.504-2.0847-6.2411-3.913-10.28-4.3418-9.5859-0.4045 0.6592-0.5954 1.9113-0.416 2.7832 0.6257 3.0406 2.7725 11.597 3.2832 13.086 0.9476 2.7624 1.0806 4.2698 0.2988 3.3809-1.5827-1.7996-9.6679-23.858-10.77-29.381-0.2743-1.375-1.1333-3.9173-1.9082-5.6504-0.7748-1.7332-1.4082-3.6519-1.4082-4.2637s-0.4423-1.8945-0.9824-2.8496c-1.4389-2.5442-9.0731-25.069-10.078-29.736-0.4737-2.2-2.7154-9.625-4.9825-16.5-4.7223-14.321-5.7841-18.74-6.8437-28.5-0.5067-4.6667-1.9843-9.7076-4.4356-15.125-2.0224-4.4692-3.6777-8.9925-3.6777-10.051 0-1.0582-0.5033-2.4272-1.1191-3.043-1.1038-1.1037-1.7505-3.4542-3.9278-14.281-1.3466-6.6962-2.7504-11.522-4.5097-15.5-1.3927-3.1486-5.6488-17.798-8.1348-28-1.7931-7.3587-4.8372-16.809-8.3731-26-0.4231-1.1-0.9976-2.9-1.2773-4s-1.6165-5.15-2.9707-9c-1.3543-3.85-2.7427-8.912-3.0859-11.248-0.3432-2.3359-1.7445-6.7781-3.1133-9.8731-1.5792-3.5709-2.4883-7.4718-2.4883-10.674 0-4.2332-2.9122-14.994-7.0918-26.205-0.4101-1.1-1.7464-7.175-2.9687-13.5-1.2222-6.325-2.545-11.95-2.9395-12.5-1.5723-2.192-4-11.073-4-14.631 0-2.0761-0.4131-4.8089-0.918-6.0722-0.8217-2.0561-2.145-7.0672-6.1543-23.297-0.6794-2.75-1.7576-8.375-2.3945-12.5-1.2243-7.9282-1.5635-9.0793-4.6133-15.609-1.0556-2.2603-1.9199-4.8461-1.9199-5.7461 0-0.9001-0.8683-4.2259-1.9297-7.3906s-2.46-8.4539-3.1074-11.754-1.4362-6.675-1.752-7.5-1.3599-5.325-2.3203-10c-2.7133-13.207-2.9857-14.302-4.3789-17.5-0.7187-1.65-1.6225-5.8135-2.0078-9.252-0.3853-3.4384-1.1057-6.502-1.6016-6.8085s-0.9023-1.8142-0.9023-3.3497c0-3.4879-1.7722-8.813-4.0234-12.09-2.4123-3.5112-4.9766-12.965-4.9766-18.346 0-2.4954-0.45-4.8144-1-5.1543s-1-1.7937-1-3.2305c0-1.4367-0.6614-3.3421-1.4688-4.2343-1.6701-1.8455-5.5757-14.689-8.0703-26.535-0.9266-4.4-2.0304-8.6922-2.4511-9.5391-0.4208-0.847-1.0966-3.997-1.502-7-0.4054-3.0031-1.0143-5.9109-1.3535-6.4609-0.3393-0.55-1.3411-3.7-2.2266-7s-2.534-9.375-3.6621-13.5-2.3564-9.75-2.7304-12.5c-0.3741-2.75-1.2962-7.25-2.0489-10s-1.9035-8.464-2.5566-12.697c-1.1091-7.1882-1.0466-7.9672 0.9414-11.781 2.7525-5.2808 2.8084-10.58 0.1289-12.254-1.1-0.6869-2-2.2112-2-3.3867 0-2.6018-2.5852-9.0063-3.9844-9.8711-0.5584-0.3451-1.0156-2.5903-1.0156-4.9883 0-2.3979-0.6368-5.6343-1.4141-7.1914-0.7773-1.557-2.172-4.4051-3.0996-6.3301-0.9275-1.925-3.6658-5.0155-6.0859-6.8672-2.4202-1.8517-4.4004-3.7737-4.4004-4.2715 0-0.4977-4.2119-5.2823-9.3594-10.633-5.1476-5.3504-11.279-11.866-13.627-14.478l-4.2676-4.75h-6.8379zm2132.6 33.809-7.4981 0.7031c-6.9912 0.6552-7.7142 0.9488-10.717 4.3457-6.0233 6.8142-9.811 10.125-11.586 10.135-0.9743 0.0043-2.278 1.1192-2.8965 2.4766-0.7452 1.6355-2.6877 2.9874-5.7597 4.0078-4.5689 1.5175-12.072 6.8319-12.072 8.5507 0 1.3017-4.6774 5.748-7.791 7.4063-1.4899 0.7936-6.984 5.3156-12.209 10.049-5.225 4.7333-9.95 8.9496-10.5 9.3692-0.55 0.4195-2.1566 2.1374-3.5703 3.8183-1.4136 1.6808-4.3386 3.6402-6.5 4.3535-9.5171 3.1408-15.084 8.8887-14.022 14.477 1.7495 9.2002 2.6798 12.902 3.4922 13.893 2.2102 2.6961 6.0996 11.112 6.0996 13.197 0 1.2606 0.4119 2.5471 0.9141 2.8575 0.8122 0.502 5.7002 7.4477 13.086 18.596 1.375 2.0754 7.3757 8.2716 13.336 13.768 5.9602 5.496 11.56 11.048 12.441 12.34 0.8816 1.2918 2.2356 2.7334 3.0098 3.2031 0.7742 0.4698 5.5266 4.5446 10.561 9.0547 8.1157 7.2712 21.463 15.592 25.012 15.592 0.5747 0 2.5091 1.4197 4.2988 3.1543 1.7896 1.7346 4.8377 4.0971 6.7734 5.25 1.9356 1.1529 5.9487 3.8195 8.918 5.9258 2.9692 2.1063 7.8187 4.4184 10.775 5.1387 2.9566 0.7203 5.6 1.3456 5.875 1.3906 2.1757 0.3545 14.642-4.1132 16.594-5.9473 1.7209-1.6168 3.7767-2.348 6.8906-2.4531 5.3133-0.1795 6.7441-1.2333 9.5547-7.0391 1.5581-3.2186 2.7315-4.4199 4.3183-4.4199 2.3886 0 9.6426-4.5154 9.6426-6.002 0-1.0518 13.343-9.998 14.912-9.998 0.5603 0 3.9591-1.6165 7.5527-3.5918 5.7494-3.1602 9.7186-6.6319 10.719-9.377 0.1741-0.4779 3.4664-1.6709 7.3164-2.6503 8.2725-2.1045 10.5-3.6992 10.5-7.5137 0-1.999 0.802-3.3171 2.75-4.5234 3.8628-2.3922 5.25-4.323 5.25-7.3047 0-2.4575-1.3772-4.527-13.25-19.908-2.6125-3.3845-4.75-6.5338-4.75-6.9981 0-1.8061-21.962-24.534-26.914-27.854-2.8806-1.9307-5.4832-4.1499-5.7832-4.9316-0.3-0.7818-1.9529-2.1397-3.6738-3.0176-1.7208-0.8778-5.8289-3.6815-9.1289-6.2305-3.3-2.5491-7.125-5.3601-8.5-6.2461-4.8354-3.1156-16.014-14.064-16.553-16.211-0.2998-1.1945-2.7732-4.3854-5.4961-7.0918-2.8358-2.8186-4.9512-5.8283-4.9512-7.0449 0-2.943-1.9239-5.0584-5.748-6.3243-4.2248-1.3984-10.252-6.0192-10.252-7.8593 0-0.7927-2.355-3.934-5.2344-6.9785l-5.2363-5.5352zm-1857 523.19c-1.9053 0-3.8506 2.7429-3.1817 4.4863 0.7865 2.0496 3.3669 1.9137 4.4727-0.2363 1.1-2.1388 0.4585-4.25-1.291-4.25zm1818.6 0.0684c-3.0747 0.0685-8.5148 0.1191-12.09 0.1191-3.575-0.0026-8.525 0.2079-11 0.4668s-7.3868 0.4648-10.916 0.4648c-7.1611-0.0069-14.479 1.6835-20.785 4.8028-2.3109 1.143-5.48 2.0781-7.041 2.0781s-5.2938 0.6173-8.2969 1.3711-9.5109 2.1272-14.461 3.0527c-18.41 3.442-20.065 3.8088-23 5.0899-1.65 0.7202-5.025 1.5418-7.5 1.8261s-5.4 0.7802-6.5 1.1016-4.475 1.1753-7.5 1.8984-6.175 1.57-7 1.8829-4.875 1.1349-9 1.8261c-4.125 0.6913-8.9442 1.8319-10.709 2.5352-1.7649 0.7034-7.1649 1.997-12 2.875-4.8352 0.878-9.691 1.9864-10.791 2.4629-1.1 0.4764-5.825 1.634-10.5 2.5703-4.675 0.9364-10.734 2.3739-13.465 3.1953s-8.5803 2.326-13 3.3437c-9.4166 2.1686-19.078 4.6223-25.9 6.5762-2.6757 0.7663-5.7415 1.3926-6.8145 1.3926s-2.8386 0.4749-3.9219 1.0547c-2.739 1.4658-17.175 5.309-35.898 9.5566-1.375 0.3119-5.425 1.3819-9 2.3789s-8.975 2.3327-12 2.9668c-10.735 2.2503-15.875 3.5837-16.6 4.3086-0.404 0.4039-1.8955 0.7403-3.3164 0.7403-1.4208 0.0033-3.934 0.7349-5.584 1.625-1.65 0.8902-5.7 2.2054-9 2.9238s-13.2 3.1834-22 5.4765c-8.8 2.2933-19.6 5.0648-24 6.1583s-10.925 2.8179-14.5 3.8339-8.525 2.1371-11 2.4903c-2.475 0.3531-8.7254 1.9571-13.889 3.5644-5.1633 1.6072-10.648 2.9219-12.189 2.9219s-3.082 0.45-3.4219 1-1.6899 1-3 1-2.6385 0.4138-2.9512 0.9199c-0.3128 0.5061-4.9514 1.8996-10.309 3.0957-5.3572 1.1962-11.765 2.7914-14.24 3.5449-5.5251 1.6823-16.477 4.3105-24.5 5.8809-3.3 0.646-7.125 1.6792-8.5 2.2949-4.0642 1.8199-18.966 6.2637-21.004 6.2637-1.0346 0-4.9455 1.0839-8.6895 2.4082-3.744 1.3244-9.5066 3.0691-12.807 3.877-22.904 5.6076-28.196 6.9942-29.711 7.7871-0.941 0.4926-4.991 1.4257-9 2.0722s-8.1769 1.7784-9.2618 2.5157-3.095 1.3398-4.4668 1.3398c-1.3717 0-4.3089 0.6284-6.5273 1.3965s-5.8332 1.8733-8.0332 2.457c-2.2 0.5836-7.2612 2.0187-11.248 3.1875-3.987 1.1688-8.712 2.2635-10.5 2.4317-1.7881 0.1682-5.277 1.2044-7.752 2.3046-2.475 1.1003-6.75 2.3176-9.5 2.7051-2.75 0.3874-5.4832 1.1021-6.0742 1.5879s-4.2937 1.5594-8.2266 2.3867-9.7477 2.3742-12.924 3.4375-8.3649 2.4076-11.529 2.9864c-3.1645 0.5788-6.6217 1.5176-7.6836 2.0859s-2.8662 1.0332-4.0098 1.0332-2.8613 0.3869-3.8164 0.8594c-2.9687 1.4687-11.526 3.9254-16.236 4.6621-2.475 0.3871-5.1247 1.2165-5.8887 1.8418-0.7639 0.6253-4.3639 1.9396-8 2.9199-3.636 0.9803-10.661 2.8725-15.611 4.207-4.95 1.3346-13.725 3.6162-19.5 5.0703-5.775 1.454-11.4 3.008-12.5 3.4512-3.8541 1.553-12.023 4.0627-14.5 4.4551-3.5375 0.5605-12.501 3.2024-14.672 4.3242-1.0051 0.5195-4.3031 1.5228-7.3281 2.2305-3.025 0.7076-6.175 1.6237-7 2.0351-0.825 0.4115-3.525 1.306-6 1.9864-5.3928 1.4824-17.737 5.2776-27.863 8.5664-4.05 1.3153-8.1 2.3965-9 2.3965-0.8999 0.0033-2.8609 0.645-4.3574 1.4257-1.4966 0.7807-6.3916 2.3706-10.877 3.5332-4.4854 1.1627-9.3362 2.6904-10.779 3.3946s-5.323 2.1004-8.623 3.1015-6.9 2.1726-8 2.6036c-1.1 0.4309-4.7 1.5287-8 2.4394-3.3 0.9106-8.7 2.5373-12 3.6152-3.3 1.078-7.6193 2.378-9.5996 2.8907-1.9802 0.5127-5.7311 1.8452-8.334 2.9609-2.6028 1.1157-5.537 2.0293-6.5215 2.0293-1.5588 0-3.8599 0.8472-13.545 4.9844-1.1 0.4699-3.4599 1.103-5.2441 1.4082-1.7843 0.3052-5.1088 1.456-7.3868 2.5566-2.2781 1.1006-4.5175 1.7681-4.9765 1.4844-0.4591-0.2837-2.0847 0.1122-3.6133 0.8789-3.6587 1.8349-15.362 5.8589-27.779 9.5527-5.5 1.6361-16.075 5.2966-23.5 8.1348-7.425 2.8381-15.075 5.4959-17 5.9062s-4.4 1.21-5.5 1.7754c-2.5403 1.3058-10.913 4.1812-15.6 5.3575-1.9802 0.497-5.7311 1.8159-8.334 2.9316-2.6028 1.1157-5.5794 2.0293-6.6152 2.0293-1.0357 0-3.3618 0.6411-5.168 1.4258-1.8061 0.7847-7.5582 3.0708-12.783 5.0801s-9.9267 4.0682-10.449 4.5742c-0.5225 0.5061-2.5475 0.9258-4.5 0.9258-1.9525 0.0036-4.9008 0.908-6.5508 2.0097-1.65 1.1016-4.8 2.4898-7 3.084s-5.35 1.6786-7 2.4102-6.6 2.4547-11 3.8281c-4.4 1.3735-11.825 3.9488-16.5 5.7246s-12.699 4.6843-17.83 6.4629c-5.1313 1.7785-9.833 3.7373-10.449 4.3535s-1.6522 1.1211-2.3008 1.1211c-0.6485 0-3.7703 1.1867-6.9375 2.6367-3.1673 1.45-7.1594 2.9787-8.8711 3.3965-3.9621 0.9671-19.724 6.4917-25.611 8.9766-2.475 1.0447-9.225 3.7316-15 5.9726s-12.137 4.9627-14.137 6.0469c-1.9998 1.0843-4.5594 1.9707-5.6895 1.9707-1.1302 0-2.3008 0.3982-2.6015 0.8848-0.3008 0.4866-1.7913 1.1141-3.3106 1.3945-1.5192 0.2805-5.9117 1.7218-9.7617 3.2031s-10.15 3.7646-14 5.0742-7.7813 2.8451-8.7363 3.4122c-0.9551 0.5669-2.5682 1.0312-3.584 1.0312s-2.1362 0.2905-2.4902 0.6445c-0.8838 0.8838-11.936 5.3416-13.256 5.3516-0.5868 0.0025-3.7368 1.3711-7 3.043-3.2631 1.6719-8.4086 3.7611-11.434 4.6406-3.025 0.8794-7.75 2.6192-10.5 3.8672-2.75 1.2479-7.025 3.0326-9.5 3.9668s-6.525 2.5193-9 3.5215-9 3.4842-14.5 5.5156-11.637 4.5393-13.637 5.5722c-1.9998 1.0328-4.3352 1.877-5.1914 1.877s-3.0464 0.8666-4.8653 1.9258c-1.819 1.0593-6.4566 3.1177-10.307 4.5742s-7.7322 3.0343-8.627 3.5059-3.3144 1.1736-5.3769 1.5605-6.2804 1.9879-9.3731 3.5566c-3.0927 1.5688-6.2286 2.8533-6.9687 2.8633-0.7401 7e-3 -2.7651 0.7528-4.5 1.6563-5.6096 2.9215-6.6099 3.3574-7.7031 3.3574-0.5914 0-4.3101 1.5227-8.2637 3.3848-10.693 5.0365-14.381 6.6152-15.465 6.6152-1.2012 0-15.228 5.4329-20.832 8.0684-2.2603 1.0629-4.6289 1.9316-5.2636 1.9316s-1.9356 0.4166-2.8907 0.9258c-0.955 0.5092-4.6613 2.0383-8.2363 3.3984s-9.425 3.8401-13 5.5098-11.9 5.116-18.5 7.6601-13.35 5.2255-15 5.9571c-11.042 4.896-14.398 6.3252-17.5 7.457-1.925 0.7024-5.525 2.0861-8 3.0742-21.12 8.4319-25.968 10.443-29.197 12.109-2.034 1.0496-4.3269 1.9082-5.0937 1.9082-1.2463 0-16.408 5.9425-24.209 9.4883-5.6374 2.5624-10.004 4.2975-21.5 8.5429-6.325 2.3358-13.3 5.0255-15.5 5.9786s-6.475 2.654-9.5 3.7793-7.6611 3.2086-10.303 4.6289c-2.6416 1.4202-5.3416 2.5879-6 2.5879-0.6584 0.0033-2.5473 0.7278-4.1973 1.6093-1.65 0.8816-6.825 3.0853-11.5 4.8985s-12.1 4.7206-16.5 6.459c-4.4 1.7385-10.025 3.8764-12.5 4.7519-2.475 0.8754-7.7339 3.0956-11.688 4.9336s-8.0623 3.3418-9.1289 3.3418-2.4989 0.675-3.1836 1.5-2.4798 1.5-3.9883 1.5-3.8866 0.9-5.2851 2c-1.3984 1.1-3.4579 2-4.5762 2s-2.2731 0.3888-2.5664 0.8633c-0.2933 0.4746-2.682 1.4435-5.3086 2.1543-2.6267 0.7108-5.2254 1.6308-5.7754 2.0449-0.55 0.414-3.475 1.6628-6.5 2.7734-3.025 1.1105-10 3.8506-15.5 6.0899-12.569 5.1176-12.857 5.2405-19.5 8.3164-3.025 1.4007-7.3 3.1008-9.5 3.7793s-5.8 2.0335-8 3.0097c-2.2 0.9763-8.3595 3.3909-13.688 5.3653-9.1433 3.3881-10.958 4.0936-18.312 7.1191-1.65 0.6788-6.825 2.7198-11.5 4.5352-4.675 1.8153-10.834 4.3464-13.688 5.625-2.8534 1.2786-5.5534 2.3222-6 2.3222-0.8877-0.0031-12.757 4.6542-15.549 6.1016-0.9551 0.4951-2.1857 0.9004-2.7344 0.9004s-3.7852 1.35-7.1914 3-6.6667 3-7.2461 3c-1.0362 0-10.626 3.5123-13.625 4.9902-0.8431 0.4155-2.9751 1.0717-4.7383 1.459-1.7631 0.3872-3.4551 1.1086-3.7597 1.6016-0.6987 1.1304-4.6299 2.855-15.832 6.9472-4.8749 1.7809-10.05 3.8567-11.5 4.6133-1.45 0.7565-3.2903 1.3828-4.0879 1.3828-1.912 0.0082-18.949 6.4456-26.549 10.031-3.3 1.557-7.35 3.1519-9 3.5449s-4.9282 1.7758-7.2852 3.0723c-2.357 1.2966-4.832 2.3633-5.5 2.3633-0.668 0.0033-2.3398 0.5868-3.7148 1.2968s-5.425 2.3507-9 3.6446c-7.5947 2.7486-30.066 12.064-38 15.754-3.025 1.4067-6.4 2.9172-7.5 3.3574s-5.825 2.4472-10.5 4.459-10.075 4.3044-12 5.0957c-1.925 0.7914-4.7731 2.1016-6.3301 2.9121-1.5571 0.8105-3.62 1.4746-4.584 1.4746-0.9641 0-7.3498 2.8125-14.189 6.25s-15.352 7.5036-18.916 9.0352c-6.8748 2.9543-20.47 9.3669-22.98 10.84-0.825 0.484-2.4 1.2854-3.5 1.7812-6.2002 2.7947-11.181 5.1779-12.5 5.9825-3.8678 2.3588-24.849 12.464-33.664 16.213-5.4095 2.3008-13.483 6.3696-17.941 9.041-4.4585 2.6714-8.4347 4.8574-8.834 4.8574-1.0798 0-14.23 5.7554-20.77 9.0898-3.14 1.6009-6.29 2.9273-7 2.9473-0.71003 0.0202-4.5103 1.7077-8.4453 3.75-15.586 8.0889-28.727 13.902-34.66 15.332-2.0984 0.5059-4.7984 1.5444-6 2.3067-1.2016 0.7624-4.8856 1.9521-8.1856 2.6445s-7.125 1.8003-8.5 2.4609c-1.375 0.6607-4.975 1.7742-8 2.4747s-7.075 2.1205-9 3.1562-5.525 2.7754-8 3.8672c-7.6288 3.365-13.774 7.3341-18.58 12-5.1956 5.0443-6.396 7.4617-7.0156 14.127-0.35095 3.7755 0.00376 5.1945 1.8711 7.5 4.0074 4.9479 4.945 8.4699 5.2812 19.844 0.24807 8.3916 0.81076 12.094 2.373 15.617 2.354 5.3082 3.488 6.4482 7.4062 7.4316 1.5538 0.39 3.0662 1.3336 3.3594 2.0977 0.68485 1.7847-1.4083 6.9648-4.4668 11.057-2.7395 3.665-2.5025 5.2179 1.832 12.053l2.834 4.4687-2.0859 2.8203c-1.4956 2.0223-1.9167 3.6626-1.4902 5.7949 0.47031 2.3516 0.1332 3.2811-1.6113 4.4395-1.7122 1.1371-2.2521 2.5585-2.4082 6.3437-0.11066 2.6828-0.48842 6.4911-0.83985 8.4629-0.56291 3.1586-0.27205 3.893 2.4453 6.1797 3.1961 2.6896 4.1501 2.6886 11.096-0.0293 1.375-0.542 3.85-0.7828 5.5-0.5429s5.7-0.3242 9-1.2539 9.0226-2.0157 12.717-2.4141c3.6941-0.3984 7.2942-1.1692 8-1.7109s3.9832-1.5359 7.2832-2.211c8.0116-1.6391 19.768-5.1325 20.949-6.2246 0.5225-0.4832 1.5446-0.8789 2.2715-0.8789 1.8477 0 19.003-6.5755 23.477-8.998 2.034-1.1015 4.2029-2.002 4.8203-2.002s5.7041-2.182 11.303-4.8477 13.555-6.342 17.68-8.1718c9.5978-4.2574 27.052-12.821 33.5-16.436 6.1292-3.4354 8.9717-4.8777 13.5-6.8535 8.1347-3.5492 12.791-5.8338 17.5-8.5879 5.8332-3.4114 13.344-7.1944 34-17.121 8.25-3.9648 20.175-9.785 26.5-12.934 6.325-3.1487 13.677-6.5493 16.338-7.5566 2.6609-1.0074 5.4749-2.8033 6.2539-3.9922s3.777-3.2132 6.6621-4.498c2.8852-1.2847 7.7211-3.4325 10.746-4.7715 9.4927-4.2019 13.302-5.9295 20.123-9.127 3.6425-1.7074 6.9322-3.1035 7.3125-3.1035 0.3802 0 3.2517-1.1634 6.379-2.5859 5.727-2.605 7.5431-3.3899 16.686-7.209 12.322-5.1472 17.304-7.0628 21.5-8.2676 2.475-0.7107 5.2098-1.8879 6.0781-2.6152s2.2858-1.3223 3.1485-1.3223c1.3613 0 10.771-4.1411 16.035-7.0566 0.969-0.5366 3.8711-1.6911 6.4492-2.5664 2.5781-0.8752 7.1855-2.7057 10.238-4.0684 9.7961-4.3726 12.098-5.3086 13.068-5.3086 0.5226 0 3.7364-1.35 7.1426-3s6.9025-3.0133 7.7675-3.0312c0.865-0.0175 2.4461-0.6926 3.5137-1.5 1.0677-0.8075 2.8732-1.4688 4.0137-1.4688 1.1406 0 3.6873-0.8636 5.6582-1.9199s5.5634-2.4436 7.9844-3.0821c2.421-0.6384 5.3163-1.7447 6.4335-2.4589 1.1173-0.7142 6.2924-2.7517 11.5-4.5274 13.097-4.4656 27.956-10.67 40.969-17.107 3.025-1.4964 7.525-3.2263 10-3.8438s6.525-1.9562 9-2.9746c2.475-1.0185 6.975-2.8549 10-4.082s6.1902-2.5729 7.0332-2.9902c0.8431-0.4174 3.0855-1.1005 4.9844-1.5176 1.8988-0.4171 4.3588-1.3386 5.4668-2.0469 1.1081-0.7083 4.7156-2.1892 8.0156-3.291s9.8086-3.6124 14.463-5.5801c4.6542-1.9677 8.86-3.5781 9.3476-3.5781 0.4877 0 2.304-0.6387 4.0372-1.4199 1.7331-0.7813 7.4273-3.0881 12.652-5.125 5.225-2.0368 9.9564-4.0627 10.514-4.5039s3.2573-1.3634 6-2.0489 6.8972-2.2577 9.2343-3.4941c2.337-1.2364 5.6989-2.5664 7.4688-2.9551 1.7699-0.3888 3.9069-1.0886 4.75-1.5547 1.5829-0.8751 8.1832-3.4822 30.533-12.06 7.15-2.7442 15.756-6.3058 19.123-7.9141 3.3675-1.6083 6.6662-2.9238 7.3301-2.9238 0.664 0 6.6835-2.2949 13.377-5.0996 6.6936-2.8047 13.07-5.4517 14.17-5.8828 6.9012-2.7046 15.665-6.0266 19.74-7.4824 2.6068-0.9312 4.9954-2.1066 5.3086-2.6133 0.3131-0.5066 1.2625-0.9219 2.1094-0.9219 1.7037 0 6.8691-2.0854 12.539-5.0605 2.034-1.0672 4.2392-1.9395 4.9004-1.9395 0.6613 0 3.4979-1.0501 6.3027-2.334 2.8048-1.284 6.4496-2.816 8.0996-3.4043s9.3-3.6333 17-6.7656 15.8-6.3593 18-7.1719c2.2-0.8127 5.35-2.0894 7-2.8379 7.4818-3.3938 10.673-4.6477 31.5-12.365 2.475-0.9172 4.95-1.9331 5.5-2.2598 0.55-0.3268 3.3573-1.3644 6.2383-2.3047 2.8811-0.9403 5.4946-2.1248 5.8086-2.6328 0.3139-0.5079 1.36-0.9238 2.3242-0.9238s3.6158-0.9 5.8926-2c2.2767-1.1 4.5477-2 5.0468-2 0.4992 0 3.334-1.2712 6.2989-2.8242 2.965-1.5529 6.9656-3.4119 8.8906-4.1309s5.3-2.0759 7.5-3.0156c2.2-0.9396 6.475-2.739 9.5-3.9981 3.025-1.259 7.1368-3.1308 9.1367-4.1601 1.9998-1.0293 4.1804-1.8711 4.8477-1.8711 1.142 0 17.962-6.4711 24.516-9.4316 5.4146-2.4461 21.888-9.4023 27.5-11.613 3.025-1.1916 10.225-4.1487 16-6.5703 5.775-2.4217 10.95-4.4026 11.5-4.3926 0.55 0.0052 4.375-1.6275 8.5-3.627 4.125-1.9994 8.85-4.1936 10.5-4.8769 7.7599-3.2139 16.512-6.4235 21.728-7.9668 3.1512-0.9324 8.7762-3.2475 12.5-5.1445s9.4715-4.3685 12.772-5.4922 6.4267-2.4563 6.9492-2.9629c0.5225-0.5067 1.6475-0.9361 2.5-0.9551 0.8525-0.0187 3.3508-0.9041 5.5508-1.9668s4.5459-1.9478 5.2148-1.9668c0.6688-0.0186 2.9188-0.7707 5-1.6719 6.0204-2.6071 7.1763-3.063 18.785-7.416 6.05-2.2686 13.25-4.7568 16-5.5293s7.058-2.5169 9.5742-3.8769c2.5161-1.3601 7.0161-3.1131 10-3.8946 2.9838-0.7815 7.0008-2.114 8.9258-2.9609 1.925-0.8468 5.975-2.2863 9-3.1992 3.025-0.913 7.075-2.3336 9-3.1563s4.9812-2.1342 6.793-2.916 4.9618-1.824 7-2.3164c2.0382-0.4923 6.857-2.2364 10.707-3.875s8.35-3.4375 10-3.998c3.6948-1.255 13.382-5.1623 15.736-6.3477 0.9551-0.4808 2.3229-0.875 3.0391-0.875s3.067-0.9 5.2246-2 4.4626-2 5.123-2c1.4146 0 32.731-11.594 36.375-13.467 5.5609-2.8578 11.787-5.5332 12.875-5.5332 0.6347 0 1.9356-0.399 2.8907-0.8867 0.955-0.4878 4.8863-1.9056 8.7363-3.1504s8.8-3.1308 11-4.1914c2.2-1.0605 6.475-2.7673 9.5-3.793 3.025-1.0258 8.65-3.0379 12.5-4.4707s11.05-3.9839 16-5.6699c4.95-1.6859 10.125-3.6606 11.5-4.3887s5.2-2.1999 8.5-3.2695 11.166-3.7977 17.478-6.0625c6.3128-2.2648 12.4-4.1172 13.527-4.1172s2.9365-0.5981 4.0214-1.3281c1.0849-0.7299 9.3977-3.7136 18.473-6.6309 9.075-2.9174 17.4-5.6796 18.5-6.1387 4.0621-1.6954 17.208-6.1161 24-8.0703 3.85-1.1077 8.4771-2.6467 10.283-3.4218 1.8062-0.7751 4.1744-1.4102 5.2617-1.4102 1.0874 0 3.8834-0.8755 6.2149-1.9453s6.7152-2.6083 9.7402-3.4199c5.3284-1.4296 15.415-4.8675 19.5-6.6465 1.1-0.4791 3.575-1.1664 5.5-1.5274s4.4-1.2206 5.5-1.9082 4.475-1.8207 7.5-2.5195 6.85-1.8441 8.5-2.5449c5.1138-2.1719 28.898-9.4883 30.846-9.4883 1.0148 0 3.0401-0.6357 4.5-1.4121 1.4599-0.7765 5.3543-2.1529 8.6543-3.0586 3.3-0.9058 6.7813-2.0702 7.7363-2.5879 0.9551-0.5178 2.4628-0.9414 3.3496-0.9414s3.0286-0.6627 4.7618-1.4727c1.7331-0.81 5.8523-2.1458 9.1523-2.9687s8.7-2.3778 12-3.4551c3.3-1.0772 13.65-4.0359 23-6.5742s19.852-5.527 23.338-6.6426c3.4862-1.1157 9.3362-2.8535 13-3.8613 6.5642-1.8055 11.74-3.5129 15.662-5.168 1.1-0.4642 6.05-1.789 11-2.9433s9.45-2.4661 10-2.9161 2.8-1.1132 5-1.4726c2.2-0.3593 5.8-1.258 8-1.9961 4.0223-1.3497 8.2426-2.5457 23-6.5215 4.4-1.1854 10.025-2.7747 12.5-3.5312s7.425-2.1034 11-2.9942 8.3-2.2163 10.5-2.9453c8.1602-2.7043 25.901-7.4212 36-9.5703 2.2-0.4682 6.7-1.6975 10-2.7324 3.3-1.0348 9.6-2.6932 14-3.6856 4.4-0.9925 8.9-2.1879 10-2.6562 5.0739-2.1602 8.3028-3.227 12-3.9649 7.9596-1.5886 17.083-3.918 21-5.3632 2.2-0.8116 5.0339-1.4975 6.2988-1.5215 1.2648-0.0241 3.6217-0.7256 5.2364-1.5606 1.6148-0.835 6.6537-2.1968 11.199-3.0254 4.5454-0.8285 9.3906-1.994 10.766-2.5898s6.325-1.911 11-2.9219c4.675-1.011 12.55-2.9538 17.5-4.3183s11.554-3.1556 14.678-3.9805 6.5827-1.9821 7.6856-2.5723c1.103-0.5903 4.1949-1.0742 6.8711-1.0742 2.6761 0 5.2919-0.385 5.8144-0.8555 1.5669-1.4109 11.455-4.2833 19.451-5.6504 8.8296-1.5095 26.036-5.9082 28.711-7.3398 1.0292-0.5508 2.5279-0.9421 3.3301-0.8711 1.9962 0.1778 9.0164-1.233 11.459-2.3027 1.1-0.4817 4.025-1.0623 6.5-1.291 2.475-0.2286 7.65-1.4141 11.5-2.6329s9.925-2.8827 13.5-3.6972 7.4-1.8927 8.5-2.3965c2.495-1.1426 15.648-4.8931 21-5.9883 5.5414-1.1338 14.9-3.4338 21.799-5.3574 3.1893-0.8894 6.7795-1.6172 7.9785-1.6172s5.1145-1.0587 8.7012-2.3535c7.6143-2.749 15.1-4.6465 18.336-4.6465 1.2571 0 2.7118-0.3891 3.2343-0.8652 0.5225-0.4762 4.4962-1.4185 8.8301-2.0938 4.3338-0.6754 9.2671-2.0714 10.961-3.1015 1.7633-1.0723 4.0108-1.6377 5.2598-1.3243 1.1998 0.3012 2.4822 0.0595 2.8496-0.5351 0.3675-0.5945 2.4157-1.0801 4.5508-1.0801s4.1601-0.45 4.5-1 2.1297-1 3.9766-1c1.847 0 5.4572-0.9 8.0234-2s6.5988-2 8.9609-2c2.7209 0 4.7817-0.5875 5.625-1.6035 0.9688-1.1676 2.3916-1.4609 5.2305-1.0801 2.7939 0.3747 4.7903-0.0202 7.041-1.3926 1.7279-1.0536 4.8039-1.9199 6.834-1.9199 2.03-2e-3 3.9687-0.4539 4.3086-1.0039s1.8747-1 3.4102-1c2.6953 0 7.4357-1.2372 11.59-3.0254 1.1-0.4734 4.025-1.1628 6.5-1.5312 2.475-0.3683 4.9534-1.0339 5.5078-1.4786 1.852-1.4855 9.9557-3.9361 13.064-3.9511 1.6895-0.0081 5.2204-0.7455 7.8476-1.6407 3.1519-1.0741 6.409-1.4356 9.5762-1.0605 3.8911 0.4608 5.1214 0.2142 6.4941-1.3027 1.1657-1.2881 3.768-2.0871 8.3516-2.5645 3.6619-0.3813 7.5582-1.1637 8.6582-1.7402 1.1-0.5764 8.525-1.8698 16.5-2.8731s16.724-2.5387 19.443-3.4121c3.5874-1.1521 10.581-1.7195 25.484-2.0703l20.539-0.4844 6.5176-3.0117c8.1271-3.7556 9.7784-5.2201 12.242-10.854 3.7835-8.6507 6.02-29.302 3.6523-33.727-1.0068-1.8818-1.0234-2.8117-0.0801-4.3222 1.4646-2.3452 1.5422-5.4477 0.1992-7.9571-0.661-1.235-0.6667-2.0807-0.0136-2.4843 1.3625-0.8421 1.1264-18.672-0.2696-20.354-1.6581-1.9977-1.564-21.428 0.1133-23.449 1.3572-1.6353 1.1698-12.687-0.3554-20.959-1.2934-7.0151-14.393-14.902-24.383-14.68zm-1811.9 5.2812c-1.5502 0.0059-3.5891 2.1654-2.7305 3.5547 0.9981 1.615 3.5306 1.3328 4.2227-0.4707 0.3307-0.862 0.0879-2.08-0.5391-2.707-0.2639-0.2639-0.5954-0.3784-0.9531-0.377zm-79.822 64.828c-0.2078 0.0188-0.3496 0.3182-0.3496 0.8223 0 0.7333 0.2993 1.0326 0.666 0.666 0.3666-0.3667 0.3666-0.9653 0-1.332-0.1146-0.1146-0.2219-0.1648-0.3164-0.1563zm4.5391 14.822c-1.2863 0-1.1524 0.8068 1.2812 7.7363 1.2047 3.4301 2.4024 6.0233 2.6621 5.7637 0.7578-0.7578-2.9642-13.5-3.9433-13.5zm8.8984 30.473c-0.5574 0.0176-0.5733 0.6633-0.2109 2.3046 0.9001 4.0781 3.5671 12.484 4.5918 14.473 0.496 0.9625 1.1623 1.75 1.4804 1.75 1.1037 0-0.849-9.4732-2.7011-13.104-1.024-2.0073-1.6366-3.8734-1.3614-4.1485 0.2751-0.2752-0.1992-0.7693-1.0547-1.0976-0.3125-0.1199-0.5583-0.1836-0.7441-0.1777zm7.0625 22.041c-1.0103 0.0516-1.1408 1.5625-0.2422 3.9043 0.9186 2.3938 2.3926 1.8945 2.3926-0.8106 0-1.3162-0.675-2.6521-1.5-2.9687-0.2465-0.0946-0.4633-0.1346-0.6504-0.125zm23.092 70.486c-1.5972 0-1.0456 3.8861 1.25 8.8047 1.6105 3.4508 2.2985 4.1963 2.5977 2.8144 0.2239-1.0341 0.0047-2.1591-0.4883-2.5-0.4929-0.3409-0.9993-2.1443-1.125-4.0078-0.2548-3.777-0.838-5.1113-2.2344-5.1113zm4.5332 14c-0.2632 0.0135-0.4746 0.2336-0.4746 0.5 0 0.275 0.225 0.5 0.5 0.5s0.5-0.225 0.5-0.5-0.225-0.5-0.5-0.5c-0.0086 0-0.0169-4e-4 -0.0254 0zm35.875 110.18c-0.2078 0.0188-0.3496 0.3182-0.3496 0.8223 0 0.7333 0.2993 1.0326 0.666 0.666 0.3666-0.3667 0.3666-0.9653 0-1.332-0.1146-0.1146-0.2219-0.1648-0.3164-0.1563z" fill="#fff"/>
 </g>
</svg>
